<?xml version="1.0" encoding="utf-8"?>
<!-- Generator: Adobe Illustrator 24.2.1, SVG Export Plug-In . SVG Version: 6.00 Build 0)  -->
<svg version="1.1" id="Layer_1" xmlns="http://www.w3.org/2000/svg" xmlns:xlink="http://www.w3.org/1999/xlink" x="0px" y="0px"
	 viewBox="0 0 4100.9 2342.7" style="enable-background:new 0 0 4100.9 2342.7;" xml:space="preserve">
<style type="text/css">
	.st0{fill:none;stroke:#59221D;stroke-width:5;stroke-linecap:round;stroke-miterlimit:10;}
	.st1{fill:#7EBAD2;}
	.st2{fill:#FFFFFF;}
	.st3{fill:#A74602;}
	.st4{fill:#FFFFFF;stroke:#59221D;stroke-width:5;stroke-miterlimit:10;}
	.st5{fill:#FFC200;}
	.st6{fill:none;stroke:#7EBAD2;stroke-width:5;stroke-miterlimit:10;}
	.st7{fill:none;stroke:#FFD100;stroke-width:5;stroke-miterlimit:10;}
	.st8{fill:none;stroke:#59221D;stroke-width:5;stroke-linecap:round;stroke-linejoin:round;}
	.st9{fill:#59221D;}
	.st10{fill:#A74602;stroke:#59221D;stroke-width:5;stroke-miterlimit:10;}
	.st11{fill:none;stroke:#59221D;stroke-width:5;stroke-miterlimit:10;}
	.st12{fill:none;stroke:#FFFFFF;stroke-width:6;stroke-linecap:round;stroke-miterlimit:10;}
	.st13{fill:none;stroke:#7EBAD2;stroke-width:5;stroke-linecap:round;stroke-miterlimit:10;}
	.st14{fill:none;stroke:#FFC200;stroke-width:6;stroke-miterlimit:10;}
</style>
<g id="Layer_2_1_">
	<g id="Слой_1">
		<g id="PLANTS">
			<path class="st0" d="M4000.8,2272.5c41.1-237.9-172.5-433.4-404.9-425.2h-12.4c-92.3,0-179-41.8-233-112.4l-33.7-44
				c-87.1-113.8-222.6-181.3-371.5-181.3c-82.2,0-141.3,18.8-186.6,48.2c-82.9,53.7-194.1,239.4-307.1,244.1
				c-166.5,7-275.5-234.2-692.3,189.5"/>
			<path class="st0" d="M136.3,2274.9c-212.8,0-174-327.6,132.8-190.5c262.2,117.2,98.1-387.2,433.3-269.4
				c82.3,28.9,277.6,176.8,387.2,177.6c44.3,0.3,355.6-167,620-28c252.5,132.7,491.3,310.3,491.3,310.3"/>
			<path class="st1" d="M4039.1,2274.8H3557c10.5-99.4,114.4-177.5,241-177.5S4028.6,2175.4,4039.1,2274.8z"/>
			<path class="st2" d="M3743,2274.8l-58-77.2h-50.3l-66.9,35.6c-0.2,0.1-0.4,0.2-0.6,0.2c0.9-2.4,1.9-4.8,3-7.2l53.9-28.7h-37.8
				c1.2-1.7,2.4-3.4,3.6-5h91.4l-37.9-50.4c1.4-0.9,2.8-1.9,4.2-2.7l102,135.4H3743z"/>
			<path class="st2" d="M3924.6,2273l82.9-78.8c1,1.4,2,2.8,2.9,4.1l-80.4,76.5L3924.6,2273z"/>
			<path class="st2" d="M3809.3,2273.7v-106.5l-43.7-67.3c-0.2-0.2-0.3-0.5-0.3-0.8c1.8-0.2,3.6-0.4,5.4-0.5l38.6,59.5v-60.5
				c1.7,0.1,3.3,0.1,5,0.2v142.1l92-122c1.6,0.6,3.2,1.3,4.8,2l-53,70.4l109-37.6c1.5,1.2,3.1,2.5,4.6,3.7l-0.1,0.1l-118.8,41
				l-38.3,50.9v25.6L3809.3,2273.7z"/>
			<path class="st3" d="M3461.4,2191.1l14-15.5l0,0l15.5,14c16.3,14.7,17.6,39.8,2.9,56.2l0,0l-14,15.5l0,0l-15.6-14
				C3448,2232.5,3446.7,2207.4,3461.4,2191.1z"/>
			<path class="st4" d="M3404.5,2202.3v-16l0,0h16c31.5,0,57.1,25.6,57.1,57.1c0,0,0,0,0,0v16l0,0h-16
				C3430.1,2259.4,3404.5,2233.8,3404.5,2202.3C3404.5,2202.3,3404.5,2202.3,3404.5,2202.3z"/>
			<path class="st5" d="M321.9,2070l-3.6-0.2c-22.8-1.4-40.2-20.9-38.8-43.7l0,0l0.2-3.6l0,0l3.6,0.2c22.8,1.4,40.2,20.9,38.8,43.7
				L321.9,2070L321.9,2070z"/>
			<path class="st0" d="M339.6,2066.2l-2.1-3.8c-13.4-24-4.9-54.3,19.1-67.8c0,0,0,0,0,0l3.8-2.1l0,0l2.1,3.8
				c13.4,24,4.9,54.3-19.1,67.8l0,0L339.6,2066.2L339.6,2066.2z"/>
			<path class="st5" d="M3465.8,1766l2.1-14.8l0,0l14.8,2.1c21.7,3.1,36.9,23.2,33.8,44.9l0,0l-2.1,14.8l0,0l-14.8-2.1
				C3477.9,1807.8,3462.7,1787.7,3465.8,1766L3465.8,1766z"/>
			<path class="st0" d="M3581.3,1734.9h40.3l0,0v40.3c0,22-17.8,39.8-39.8,39.8l0,0h-40.3l0,0v-40.3
				C3541.6,1752.7,3559.4,1734.9,3581.3,1734.9L3581.3,1734.9z"/>
			<line class="st0" x1="3541.6" y1="1815" x2="3621.6" y2="1734.9"/>
			<line class="st0" x1="3589.8" y1="1770.2" x2="3621.6" y2="1770.2"/>
			<line class="st0" x1="3563.4" y1="1740.7" x2="3563.4" y2="1792.8"/>
			<path class="st0" d="M198.9,2162.7h21.9l0,0v21.9c0,22-17.8,39.7-39.8,39.8h-21.9l0,0v-21.9
				C159.1,2180.5,176.9,2162.7,198.9,2162.7z"/>
			<line class="st0" x1="159.1" y1="2224.3" x2="220.7" y2="2162.7"/>
			<line class="st0" x1="194.4" y1="2189.8" x2="219.6" y2="2189.8"/>
			<line class="st0" x1="175.9" y1="2171.4" x2="175.9" y2="2207.3"/>
		</g>
		<g id="MOUNTAIN">
			<path class="st6" d="M1227.8,479.4L1722.6,141c56.8-38.9,128.9-34.1,181.3,12l919.7,808.7H126.5L998.1,438
				c44.3-26.6,97.1-28.3,142.6-4.3L1227.8,479.4z"/>
			<path class="st1" d="M1233.2,478.5l-201,134c-2.6,1.8-6.2,1.1-8-1.6c-1.1-1.6-1.3-3.8-0.5-5.6l81.1-185.9L1233.2,478.5z"/>
		</g>
		<g id="WATER">
			<path class="st0" d="M3861.3,961.7c-152.5,4.4-389.8,39.2-529.6,100.8l-201.3,88.8c-145.6,64.2-302.9,97.3-462,97.3h-804.9
				c-100,0-199.6,12.9-296.3,38.4l0,0c-96.7,25.5-196.3,38.4-296.3,38.4H582.6c-195.2,0-376.7-100.5-480.3-266l-61.2-97.7H3861.3z"
				/>
			<path class="st0" d="M254,1021.6c9-8.9,23.5-8.9,32.5,0l0,0c9,8.9,23.5,8.9,32.5,0l0,0c9-8.9,23.5-8.9,32.5,0l0.2,0.2
				c9,8.9,23.5,8.9,32.5,0l0.5-0.5c8.9-9,23.5-9,32.4,0c0,0,0,0,0,0l0.5,0.5c9,8.9,23.5,8.9,32.5,0l0.3-0.3c9-8.9,23.5-8.9,32.5,0
				l0.3,0.3c9,8.9,23.5,8.9,32.5,0l0.2-0.2c9-8.9,23.5-8.9,32.5,0"/>
			<path class="st0" d="M548.1,1021.8c9,8.9,23.5,8.9,32.5,0l0.2-0.2c9-8.9,23.5-8.9,32.5,0"/>
			<path class="st0" d="M351.3,1051.3l0.2,0.2c9,8.9,23.5,8.9,32.5,0l0.5-0.5c9-8.9,23.5-8.9,32.5,0l0.5,0.5c9,8.9,23.5,8.9,32.5,0
				l0.3-0.3c9-8.9,23.5-8.9,32.5,0l0.3,0.3c9,8.9,23.5,8.9,32.5,0l0.2-0.2c9-8.9,23.5-8.9,32.5,0"/>
			<path class="st0" d="M2608,1087.9L2608,1087.9c9,8.9,23.5,8.9,32.4,0l0,0c9-8.9,23.5-8.9,32.5,0l0.1,0.2c9,8.9,23.5,8.9,32.4,0
				l0.5-0.5c9-8.9,23.5-8.9,32.4,0l0.5,0.5c9,8.9,23.5,8.9,32.4,0l0.3-0.3c9-8.9,23.5-8.9,32.4,0l0.3,0.3c9,8.9,23.5,8.9,32.4,0
				l0.1-0.2c9-8.9,23.5-8.9,32.5,0"/>
			<path class="st0" d="M2672.9,1117.5l0.1,0.2c9,8.9,23.5,8.9,32.4,0l0.5-0.5c9-8.9,23.5-8.9,32.4,0l0.5,0.5c9,8.9,23.5,8.9,32.4,0
				l0.3-0.3c9-8.9,23.5-8.9,32.4,0l0.3,0.3c9,8.9,23.5,8.9,32.4,0l0.1-0.2"/>
		</g>
		<g id="BRIDGE">
			<line class="st0" x1="1275.3" y1="583.7" x2="1275.3" y2="865.5"/>
			<line class="st0" x1="1235.3" y1="623.6" x2="1235.3" y2="865.5"/>
			<line class="st0" x1="1195.3" y1="651.5" x2="1195.3" y2="865.5"/>
			<line class="st0" x1="1155.3" y1="672.4" x2="1155.3" y2="865.5"/>
			<line class="st0" x1="1115.3" y1="689.4" x2="1115.3" y2="865.5"/>
			<line class="st0" x1="1075.4" y1="701.3" x2="1075.4" y2="865.5"/>
			<line class="st0" x1="1035.4" y1="710.3" x2="1035.4" y2="865.5"/>
			<line class="st0" x1="1342.4" y1="574.6" x2="1342.4" y2="865.5"/>
			<line class="st0" x1="1382.4" y1="608.2" x2="1382.4" y2="864.5"/>
			<line class="st0" x1="1422.3" y1="633.8" x2="1422.3" y2="864.5"/>
			<line class="st0" x1="1462.3" y1="654.9" x2="1462.3" y2="864.5"/>
			<line class="st0" x1="1502.3" y1="672.9" x2="1502.3" y2="864.5"/>
			<line class="st0" x1="1542.3" y1="687.6" x2="1542.3" y2="864.5"/>
			<line class="st0" x1="1582.3" y1="700.1" x2="1582.3" y2="864.5"/>
			<line class="st0" x1="1622.3" y1="710.9" x2="1622.3" y2="864.5"/>
			<line class="st0" x1="1662.3" y1="718.6" x2="1662.3" y2="864.5"/>
			<line class="st0" x1="1702.3" y1="727.1" x2="1702.3" y2="864.5"/>
			<line class="st0" x1="1742.3" y1="732.9" x2="1742.3" y2="864.5"/>
			<line class="st0" x1="1782.3" y1="738.6" x2="1782.3" y2="864.5"/>
			<line class="st0" x1="1822.3" y1="742.1" x2="1822.3" y2="864.5"/>
			<line class="st0" x1="1862.3" y1="744.9" x2="1862.3" y2="864.5"/>
			<line class="st0" x1="1902.3" y1="747.6" x2="1902.3" y2="864.5"/>
			<line class="st0" x1="1942.3" y1="748.1" x2="1942.3" y2="864.5"/>
			<line class="st0" x1="995.4" y1="718.3" x2="995.4" y2="865.5"/>
			<line class="st0" x1="955.4" y1="722.3" x2="955.4" y2="865.5"/>
			<line class="st0" x1="915.5" y1="725.2" x2="915.5" y2="865.5"/>
			<line class="st0" x1="875.5" y1="727.2" x2="875.5" y2="865.5"/>
			<line class="st0" x1="835.5" y1="727.2" x2="835.5" y2="865.5"/>
			<line class="st0" x1="795.5" y1="722.3" x2="795.5" y2="865.5"/>
			<line class="st0" x1="755.5" y1="715.3" x2="755.5" y2="865.5"/>
			<line class="st0" x1="715.6" y1="705.3" x2="715.6" y2="865.5"/>
			<line class="st0" x1="675.6" y1="692.3" x2="675.6" y2="865.5"/>
			<line class="st0" x1="635.6" y1="676.4" x2="635.6" y2="865.5"/>
			<line class="st0" x1="595.6" y1="655.5" x2="595.6" y2="865.5"/>
			<line class="st0" x1="555.7" y1="630.5" x2="555.7" y2="865.5"/>
			<line class="st0" x1="487.1" y1="655.5" x2="487.1" y2="864.1"/>
			<line class="st0" x1="447.2" y1="696" x2="447.2" y2="864.1"/>
			<line class="st0" x1="407.2" y1="728.2" x2="407.2" y2="864.1"/>
			<line class="st0" x1="367.2" y1="755.8" x2="367.2" y2="864.1"/>
			<line class="st0" x1="327.2" y1="780.1" x2="327.2" y2="864.1"/>
			<line class="st0" x1="287.3" y1="801.5" x2="287.3" y2="864.1"/>
			<line class="st0" x1="247.3" y1="818.7" x2="247.3" y2="864.1"/>
			<line class="st0" x1="207.3" y1="835.5" x2="207.3" y2="864.1"/>
			<line class="st0" x1="167.3" y1="846.5" x2="167.3" y2="864.1"/>
			<line class="st0" x1="2620.3" y1="544.4" x2="2620.3" y2="865.1"/>
			<line class="st0" x1="2660.8" y1="588.3" x2="2660.8" y2="865.1"/>
			<line class="st0" x1="2701.3" y1="622.1" x2="2701.3" y2="865.1"/>
			<line class="st0" x1="2741.8" y1="649" x2="2741.8" y2="865.1"/>
			<line class="st0" x1="2782.3" y1="671" x2="2782.3" y2="865.1"/>
			<line class="st0" x1="2822.7" y1="687.9" x2="2822.7" y2="865.1"/>
			<line class="st0" x1="2863.2" y1="702.9" x2="2863.2" y2="865.1"/>
			<line class="st0" x1="2903.7" y1="712.8" x2="2903.7" y2="865.1"/>
			<line class="st0" x1="2944.2" y1="719.8" x2="2944.2" y2="865.1"/>
			<line class="st0" x1="2984.6" y1="724.8" x2="2984.6" y2="865.1"/>
			<line class="st0" x1="3025.1" y1="726.8" x2="3025.1" y2="865.1"/>
			<line class="st0" x1="3065.6" y1="726.8" x2="3065.6" y2="865.1"/>
			<line class="st0" x1="3106.1" y1="721.8" x2="3106.1" y2="865.1"/>
			<line class="st0" x1="3146.6" y1="713.8" x2="3146.6" y2="865.1"/>
			<line class="st0" x1="3187.1" y1="703.9" x2="3187.1" y2="865.1"/>
			<line class="st0" x1="3227.5" y1="689.9" x2="3227.5" y2="865.1"/>
			<line class="st0" x1="3268" y1="674" x2="3268" y2="865.1"/>
			<line class="st0" x1="3308.5" y1="653" x2="3308.5" y2="865.1"/>
			<line class="st0" x1="3348" y1="628.1" x2="3348" y2="865.1"/>
			<line class="st0" x1="3703" y1="843.6" x2="3703" y2="865.1"/>
			<line class="st0" x1="3662.5" y1="829.5" x2="3662.5" y2="865.1"/>
			<line class="st0" x1="3622" y1="813.1" x2="3622" y2="865.1"/>
			<line class="st0" x1="3581.5" y1="794.9" x2="3581.5" y2="865.1"/>
			<line class="st0" x1="3541.1" y1="772.5" x2="3541.1" y2="865.1"/>
			<line class="st0" x1="3500.6" y1="745.5" x2="3500.6" y2="865.1"/>
			<line class="st0" x1="3460.1" y1="711.5" x2="3460.1" y2="865.1"/>
			<line class="st0" x1="3420.6" y1="671.1" x2="3420.6" y2="865.1"/>
			<line class="st0" x1="2547.6" y1="532.5" x2="2547.6" y2="865.1"/>
			<line class="st0" x1="2507.1" y1="570.2" x2="2507.1" y2="865.1"/>
			<line class="st0" x1="2466.6" y1="600.4" x2="2466.6" y2="865.1"/>
			<line class="st0" x1="2426.1" y1="625.4" x2="2426.1" y2="865.1"/>
			<line class="st0" x1="2385.6" y1="647.2" x2="2385.6" y2="865.1"/>
			<line class="st0" x1="2345.2" y1="666.8" x2="2345.2" y2="865.1"/>
			<line class="st0" x1="2304.7" y1="683.3" x2="2304.7" y2="865.1"/>
			<line class="st0" x1="2264.2" y1="699.7" x2="2264.2" y2="865.1"/>
			<line class="st0" x1="2223.7" y1="710.9" x2="2223.7" y2="865.1"/>
			<line class="st0" x1="2183.3" y1="721.1" x2="2183.3" y2="865.1"/>
			<line class="st0" x1="2142.8" y1="730.2" x2="2142.8" y2="865.1"/>
			<line class="st0" x1="2102.3" y1="737.2" x2="2102.3" y2="865.1"/>
			<line class="st0" x1="2061.8" y1="741.9" x2="2061.8" y2="865.1"/>
			<line class="st0" x1="2021.3" y1="748.6" x2="2021.3" y2="865.1"/>
			<line class="st0" x1="1980.8" y1="748.2" x2="1980.8" y2="865.1"/>
			<line class="st0" x1="1307.8" y1="539.6" x2="1307.8" y2="960.8"/>
			<line class="st0" x1="520.5" y1="605.8" x2="520.5" y2="960.8"/>
			<line class="st0" x1="2583" y1="489.6" x2="2583" y2="960.8"/>
			<line class="st0" x1="3380.1" y1="605.8" x2="3380.1" y2="960.8"/>
			<path class="st0" d="M1307.5,534.5c111.7,153.8,405.2,213.3,650.1,213.3"/>
			<path class="st0" d="M520.8,605.4c86.8,67.7,208.5,120.7,343.1,120.7c200.7,0,372.5-58.6,443.3-191"/>
			<path class="st0" d="M41.1,864.6c200.6,0,433.6-157.3,479.6-259.2"/>
			<path class="st0" d="M2583.2,489C2470.1,642.8,2204,747.8,1956,747.8"/>
			<path class="st0" d="M3379.8,605.4c-88,67.7-211.1,120.7-347.5,120.7c-203.2,0-377.1-104.3-448.8-236.8"/>
			<path class="st0" d="M3861.3,864.6c-219.9,0-434.8-139.5-481.4-259.2"/>
			<line class="st0" x1="3860.3" y1="865.4" x2="41.1" y2="865.4"/>
			<path class="st0" d="M428.9,865.4c50.7,0,91.8,42.2,91.8,94.2"/>
			<path class="st0" d="M612.3,865.4c-50.7,0-91.8,42.2-91.8,94.2"/>
			<path class="st0" d="M1216.9,865.4c50.7,0,91.8,42.2,91.8,94.2"/>
			<path class="st0" d="M1400.3,865.4c-50.7,0-91.8,42.2-91.8,94.2"/>
			<path class="st0" d="M3287.3,865.4c51.3,0,92.9,42.2,92.9,94.2"/>
			<path class="st0" d="M3472.9,865.4c-51.3,0-92.9,42.2-92.9,94.2"/>
			<path class="st0" d="M2490.2,865.4c51.3,0,92.9,42.2,92.9,94.2"/>
			<path class="st0" d="M2675.9,865.4c-51.3,0-92.9,42.2-92.9,94.2"/>
		</g>
		<g id="GROUND">
			<line class="st0" x1="254" y1="2274.8" x2="4098.4" y2="2274.8"/>
			<line class="st0" x1="944" y1="2340.2" x2="2451.7" y2="2340.2"/>
		</g>
		<g id="CAR_WINDOWS">
			<path class="st2" d="M2017.4,1093.7l-95.4,427.5c-8,36-40,61.7-76.9,61.7h-443.4c-26.5,0-48.1-21.5-48.1-48.1
				c0-3.5,0.4-7,1.2-10.5l95.4-427.5c8-36,40-61.7,76.9-61.7h443.4c26.5,0,48.1,21.5,48.1,48.1
				C2018.6,1086.8,2018.2,1090.3,2017.4,1093.7z"/>
			<path class="st2" d="M2694.5,1582.9h-627.3c-31.8,0-57.6-25.8-57.6-57.6c0-4.2,0.5-8.4,1.4-12.6l92.8-415.9
				c8-36,40-61.7,76.9-61.7h239.2c27.3,0,52.4,15,65.3,39l243.5,451.5C2742.6,1551.5,2723.9,1582.9,2694.5,1582.9z"/>
		</g>
		<g id="MAN">
			<g id="T-SHIRT">
				<path class="st4" d="M1917.8,1582.9v-215.7c0-64.5,52.3-116.8,116.8-116.8c0,0,0,0,0,0h273.3c45.7,0,86.9,27.3,104.7,69.4
					l111.3,263.1L1917.8,1582.9z"/>
				<g id="PATTERN">
					<polygon class="st1" points="2510.7,1558.2 1920.3,1558.2 1920.3,1552.2 2508.2,1552.2 					"/>
					<polygon class="st1" points="2499,1530.4 1920.3,1530.4 1920.3,1524.4 2496.4,1524.4 					"/>
					<polygon class="st1" points="2487.2,1502.7 1920.3,1502.7 1920.3,1496.7 2484.7,1496.7 					"/>
					<polygon class="st1" points="2475.5,1475 1920.3,1475 1920.3,1469 2473,1469 					"/>
					<polygon class="st1" points="2463.8,1447.2 1920.3,1447.2 1920.3,1441.2 2461.2,1441.2 					"/>
					<polygon class="st1" points="2452,1419.5 1920.3,1419.5 1920.3,1413.5 2449.5,1413.5 					"/>
					<polygon class="st1" points="2440.3,1391.8 1920.3,1391.8 1920.3,1385.8 2437.8,1385.8 					"/>
					<path class="st1" d="M2428.6,1364h-508.2c0.1-2,0.2-4,0.3-6H2426L2428.6,1364z"/>
					<path class="st1" d="M2416.9,1336.3h-492.3c0.6-2,1.2-4,1.9-6h487.9L2416.9,1336.3z"/>
					<path class="st1" d="M2404.2,1308.6h-467.7c1.2-2,2.5-4,3.9-6h460.1C2401.8,1304.6,2403.1,1306.5,2404.2,1308.6z"/>
					<path class="st1" d="M2381.6,1280.9h-421.9c2.4-2.1,4.9-4.1,7.5-6h407C2376.8,1276.8,2379.3,1278.8,2381.6,1280.9z"/>
				</g>
			</g>
			<g id="WHEEL">
				<line class="st7" x1="2621.3" y1="1478.9" x2="2436.9" y2="1585.1"/>
				<path class="st7" d="M2620.7,1585.2c4.9-11.7,8.4-23.9,10.2-36.5c9.9-66-30.5-121.1-90.3-123.1s-116.4,50-126.3,116
					c-2.3,14.4-2,29.1,0.8,43.4L2620.7,1585.2z"/>
			</g>
			<g id="HAND">
				<path class="st3" d="M2458.5,1582.9h-541.3c34-28.3,369.2-159.7,509.3-104.7C2507.3,1510,2458.5,1582.9,2458.5,1582.9z"/>
				<path class="st8" d="M2425.4,1511.9c30.1,11.8,39.2,26.3,42.6,43.6"/>
				<path class="st8" d="M2414.5,1542.4c30.1,11.8,40.2,23.3,43.6,40.6"/>
			</g>
			<g id="NECK">
				<polygon class="st3" points="2244.6,1250.4 2244.6,1198.6 2170.3,1181.7 2125.9,1250.4 2245.6,1326.5 				"/>
				<line class="st0" x1="2125.9" y1="1250.4" x2="2248.8" y2="1326.5"/>
				<path class="st9" d="M2244.6,1252.4v-53.8l-71.1-15.8l0,0c0.3,11.5,6,22.2,15.5,28.8L2244.6,1252.4z"/>
			</g>
			<g id="HEAD">
				<path id="HAIR" class="st9" d="M2256.7,1134.3c-2.8-5.7-8.6-9.3-14.9-9.3h-36.4c-0.6,0-1.3,0-1.9,0.1
					c-12.2,1-21.7,11.2-21.7,23.5v7.4c-11.3-0.8-20.2-10.6-20.2-22.5c0-12.4,9.7-22.5,21.7-22.5c1.7,0,3.4,0.2,5.1,0.6
					c3.9-7.3,24.3-42.7,45.9-23.6c5.7,5,0.6,15.2,0.3,15.9c1-1.1,22.9-24.9,42.3-6.4C2291.9,1111.8,2268.6,1127.6,2256.7,1134.3z"/>
				<path id="HEAD-2" class="st3" d="M2258.3,1141.6v43.1c0,12.9-10.4,23.3-23.3,23.3l0,0h-30c-12.9,0-23.3-10.4-23.3-23.3
					c0,0,0,0,0,0v-0.2h-16.5c-9.6,0-17.4-7.8-17.4-17.4v-3.5c0-9.6,7.8-17.4,17.4-17.4h2.7c5.3,0,10.3,2.3,13.8,6.3v-4.1
					c0-13,10.5-23.6,23.6-23.6l0,0h36.4C2250.9,1124.9,2258.3,1132.4,2258.3,1141.6C2258.3,1141.5,2258.3,1141.6,2258.3,1141.6z"/>
				<g id="FACE">
					<path class="st0" d="M2253.9,1146.9c0,0-23.7-4-20.2,5.5s3.5,19.8,1.1,24.9"/>
					<ellipse class="st9" cx="2212.9" cy="1162.9" rx="3.1" ry="4.3"/>
					<ellipse class="st9" cx="2245.3" cy="1162.9" rx="3.1" ry="4.3"/>
					<path class="st0" d="M2233.7,1187.6c0,0-11.6,3-13.1-5.4"/>
					<path class="st0" d="M2198.4,1148c6.2-2.9,13.2-3.8,20-2.5"/>
					<path class="st0" d="M2176.4,1168.3c0-6.8-5.5-12.3-12.3-12.3l0,0"/>
				</g>
				<circle id="HAIR-2" class="st9" cx="2185.3" cy="1128.1" r="17.2"/>
			</g>
		</g>
		<g id="BACK_WHEEL">
			<path class="st4" d="M3067.8,2129.7c0,79.8-55.4,144.4-130.8,144.4h-34.9c72.8,0,131.8-64.6,131.8-144.4s-59-144.4-131.8-144.4
				h34.9C3012.4,1985.3,3067.8,2050,3067.8,2129.7z"/>
			<ellipse class="st10" cx="2902.1" cy="2129.7" rx="131.8" ry="144.4"/>
			<ellipse class="st11" cx="2902.1" cy="2130.8" rx="79.9" ry="87.5"/>
		</g>
		<g id="CAR-2">
			<path class="st5" d="M3224.4,1795l-432.3-212.1l-295.3-547.7l-10.9-20.3c-18.5-34.6-54.5-56.2-93.8-56.2H866.9
				c-49.8,0-92.9,34.6-103.8,83.2L530.6,2084.4h2745v-203.9C3275.6,1844.7,3255.9,1811.9,3224.4,1795z M1845.1,1582.9h-443.4
				c-26.5,0-48.1-21.5-48.1-48.1c0-3.5,0.4-7,1.2-10.5l95.4-427.5c8-36,40-61.7,76.9-61.7h443.4c26.5,0,48.1,21.5,48.1,48.1
				c0,3.5-0.4,7-1.2,10.5l-95.4,427.5C1914,1557.3,1882.1,1582.9,1845.1,1582.9L1845.1,1582.9z M2694.5,1582.9h-627.3
				c-31.8,0-57.6-25.8-57.6-57.6c0-4.2,0.5-8.4,1.4-12.6l92.8-415.9c8-36,40-61.7,76.9-61.7h239.2c27.3,0,52.4,15,65.3,39
				l243.5,451.5C2742.6,1551.5,2723.9,1582.9,2694.5,1582.9L2694.5,1582.9z"/>
			<path class="st4" d="M3347.7,2106.5v25c0,12.2-9.9,22.1-22.1,22.1h0H480.6c-12.2,0-22.1-9.9-22.1-22.1c0,0,0,0,0,0v-25
				c0-12.2,9.9-22.1,22.1-22.1c0,0,0,0,0,0h2845.1C3337.8,2084.4,3347.7,2094.3,3347.7,2106.5
				C3347.7,2106.5,3347.7,2106.5,3347.7,2106.5z"/>
			<path class="st4" d="M2639.8,2106.5v25c0,12.2-9.9,22.1-22.1,22.1h0H480.6c-12.2,0-22.1-9.9-22.1-22.1c0,0,0,0,0,0v-25
				c0-12.2,9.9-22.1,22.1-22.1c0,0,0,0,0,0h2137.1C2629.9,2084.4,2639.8,2094.3,2639.8,2106.5
				C2639.8,2106.5,2639.8,2106.5,2639.8,2106.5z"/>
		</g>
		<g id="HEADLIGHTS">
			<ellipse class="st2" cx="3215.9" cy="1879.7" rx="59.4" ry="78.1"/>
			<ellipse class="st0" cx="3206" cy="1871.5" rx="61.6" ry="75.8"/>
			<path class="st0" d="M3202.8,1795.8h-17.4c-34,0-61.6,33.9-61.6,75.8s27.6,75.8,61.6,75.8h17.4"/>
			<ellipse class="st2" cx="2649.3" cy="1879.7" rx="59.4" ry="78.1"/>
			<ellipse class="st0" cx="2639.4" cy="1871.5" rx="61.6" ry="75.8"/>
			<path class="st0" d="M2636.1,1795.8h-17.4c-34,0-61.6,33.9-61.6,75.8s27.6,75.8,61.6,75.8h17.4"/>
		</g>
		<g id="CONTOURS">
			<path class="st0" d="M2526.4,2084.4v-203.9c0-35.8-19.7-68.6-51.2-85.5l-385.9-179.6"/>
			<path class="st0" d="M1201,2040.5l225.7-1010.7c2.7-12,13.4-20.6,25.7-20.6h580.7c18.1,0,32.7,14.7,32.7,32.7
				c0,2.4-0.3,4.8-0.8,7.1l-221.4,991.4"/>
			<line class="st0" x1="1218.3" y1="1615.3" x2="751.7" y2="1615.3"/>
			<line class="st0" x1="776.3" y1="1009.2" x2="2485.9" y2="1009.2"/>
			<line class="st0" x1="2734.4" y1="1853.5" x2="3102.6" y2="1853.5"/>
			<line class="st0" x1="2157" y1="1615.3" x2="2756.1" y2="1615.3"/>
			<path class="st0" d="M627.4,2032c38.7-90.2,124.6-153,224.4-153c103.3,0,191.7,67.2,228.2,162.4h862.9
				c33.9-99.8,123.5-162.4,223.3-162.4c103.3,0,191.7,67.2,228.2,162.4"/>
			<path class="st12" d="M2789.8,1888.1h257.4c10.4,0,18.8,8.4,18.8,18.8v106.7c0,10.4-8.4,18.8-18.8,18.8h-257.4
				c-10.4,0-18.8-8.4-18.8-18.8v-106.7C2771,1896.6,2779.4,1888.1,2789.8,1888.1z"/>
			<line class="st0" x1="2812.3" y1="1928.5" x2="3024.6" y2="1928.5"/>
			<line class="st0" x1="2812.3" y1="1962.2" x2="3024.6" y2="1962.2"/>
			<line class="st0" x1="2812.3" y1="1995.9" x2="3024.6" y2="1995.9"/>
		</g>
		<g id="WHEELS">
			<path class="st9" d="M1044.8,2084.4h-386c20.4-90.7,99.1-158.3,193-158.3S1024.4,1993.7,1044.8,2084.4z"/>
			<path class="st10" d="M999.8,2130.5c0,79.8-55.4,144.4-130.8,144.4h-34.8c72.8,0,131.8-64.7,131.8-144.4s-59-144.4-131.8-144.4
				H869C944.4,1986.1,999.8,2050.7,999.8,2130.5z"/>
			<ellipse class="st4" cx="834.1" cy="2130.5" rx="131.8" ry="144.4"/>
			<ellipse class="st3" cx="843.7" cy="2140.3" rx="79.9" ry="87.5"/>
			<ellipse class="st11" cx="834.1" cy="2131.6" rx="79.9" ry="87.5"/>
			<circle class="st11" cx="833.9" cy="2131.6" r="13"/>
			<path class="st9" d="M2359.1,2084.4h-386c20.4-90.7,99.1-158.3,193-158.3S2338.8,1993.7,2359.1,2084.4z"/>
			<path class="st10" d="M2314.2,2130.5c0,79.8-55.4,144.4-130.8,144.4h-34.9c72.8,0,131.8-64.7,131.8-144.4s-59-144.4-131.8-144.4
				h34.9C2258.8,1986.1,2314.2,2050.7,2314.2,2130.5z"/>
			<ellipse class="st4" cx="2148.5" cy="2130.5" rx="131.8" ry="144.4"/>
			<ellipse class="st3" cx="2158.1" cy="2140.3" rx="79.9" ry="87.5"/>
			<ellipse class="st11" cx="2148.5" cy="2131.6" rx="79.9" ry="87.5"/>
			<circle class="st11" cx="2148.3" cy="2131.6" r="13"/>
		</g>
		<g id="BAGGAGE">
			<path class="st13" d="M2129.3,857.1"/>
			<path class="st13" d="M1748.5,857.1"/>
			<line class="st11" x1="1937" y1="958.7" x2="1937" y2="889.4"/>
			<line class="st11" x1="924.6" y1="958.7" x2="924.6" y2="889.4"/>
			<line class="st11" x1="2340.4" y1="958.7" x2="2340.4" y2="889.4"/>
			<line class="st0" x1="868.7" y1="889.4" x2="2378.3" y2="889.4"/>
		</g>
		<g id="MIRROR">
			<ellipse class="st5" cx="2825.2" cy="1411.9" rx="45.8" ry="63.6"/>
			<ellipse class="st0" cx="2814" cy="1406" rx="45.8" ry="63.6"/>
			<path class="st0" d="M2775.1,1547.9c0-49.9,18.5-98.1,52-135.1"/>
		</g>
		<g id="WOMAN">
			<g id="BODY">
				<path class="st9" d="M1509.9,1300.3l245.9-40.9l71.4,177.7c10.6,26.4,4.9,56.6-14.7,77.3l-12.3,13v55.6h-294L1509.9,1300.3z"/>
			</g>
			<g id="HANDS">
				<path id="RIGHT" class="st3" d="M1812.5,1514.4c19.6-20.7,25.4-50.8,14.7-77.3l-71.4-177.7c35.4-5.9,70.4,12.2,86,44.5
					l77.1,159.3c26.8,55.4-13.6,119.7-75,119.7h-43.6v-55.6L1812.5,1514.4z"/>
				<g id="LEFT">
					<path class="st3" d="M1503.2,1301.2L1503.2,1301.2c-28.9,4.9-53.5,23.5-66.2,49.9l-70.1,146.6
						c-55.8,116.5,69.3,236.7,183.5,176.5l173-91.3h188.1c8.5,0,15.4-6.9,15.4-15.4c0,0,0,0,0,0l0,0c0-5.8-3.3-11.1-8.5-13.8
						l-84.3-42.5c-29.4-14.8-61.8-22.5-94.7-22.5h-181.6l2.3-138.6c0.4-26.9-21-49.1-48-49.6
						C1509.1,1300.5,1506.1,1300.7,1503.2,1301.2z"/>
					<path class="st0" d="M1911.5,1579.6c8.5,0,15.4-3.6,15.4-12.2l0,0c0-5.8-3.3-11.1-8.5-13.8l-84.3-42.5
						c-29.4-14.8-61.8-22.5-94.7-22.5h-153.1c-28,0-55.4,7.5-79.5,21.7"/>
					<path class="st0" d="M1701.7,1554.6c0,13.8,11.2,25,25,25l0,0"/>
					<path class="st0" d="M1823.1,1536.6l63,25.8c7,2.9,11.6,9.7,11.6,17.3"/>
					<path class="st0" d="M1781.3,1542.2l49.3,20.2c7,2.9,11.6,9.7,11.6,17.3"/>
				</g>
			</g>
			<g id="HEAD-3">
				<path id="HAIR-3" class="st5" d="M1759.3,1258.9l-127.2,21.1c-12.1,51-57.4,82.5-107.6,65.2c-109-37.6,78.3-188.5,110.4-216.6
					c34.4-30,80-30.9,90.6-3.9c9.8,24.9-10.5,36-25,38.1C1702.2,1174.3,1713.3,1242.6,1759.3,1258.9z"/>
				<g id="NECK-2">
					<path class="st3" d="M1691.2,1218.5v59.3c0,18.4-14.9,33.3-33.3,33.3l0,0c-18.4,0-33.3-14.9-33.3-33.3v-88.3L1691.2,1218.5z"/>
					<path class="st9" d="M1624.5,1189.6L1624.5,1189.6l66.7,28.9v51.7l-40.4-25.3C1634.1,1231.4,1624.5,1211,1624.5,1189.6z"/>
				</g>
				<path id="HEAD-4" class="st3" d="M1698.2,1162.7v40.2c0,14.5-11.7,26.2-26.2,26.2c0,0,0,0,0,0h-6.1c-14.4,0-27.8-7.5-35.3-19.7
					h-18.1c-9.6-0.2-17.2-8.2-17-17.8c0.2-9.3,7.7-16.8,17-17h5.4c2.6,0,5.1,0.8,7.2,2.3l30.2-34.5
					C1674.5,1163.9,1698.2,1162.7,1698.2,1162.7z"/>
				<g id="FACE-2">
					<path class="st0" d="M1621.6,1194.4c0-6.2-5-11.2-11.2-11.2"/>
					<path class="st0" d="M1696,1167.9c0,0-10.3-1.1-17,6.5c-4.3,4.9-4.5,17,1.1,24.9"/>
					<ellipse class="st9" cx="1658.1" cy="1184.9" rx="3.1" ry="4.3"/>
					<ellipse class="st9" cx="1687.3" cy="1184.9" rx="3.1" ry="4.3"/>
					<path class="st0" d="M1679,1209.5c0,0-11.7,3-13.1-5.4"/>
					<path class="st0" d="M1643.7,1172.1c0,0,8.8-6.9,20-4.7"/>
				</g>
			</g>
		</g>
		<g id="CHILD">
			<g id="HAND-2">
				<path class="st0" d="M1168.3,1378.5"/>
				<path class="st0" d="M1184.9,1326.2"/>
				<path class="st0" d="M1182.5,1380.7"/>
				<path class="st0" d="M1198,1329.5"/>
			</g>
			<g id="HEAD-5">
				<g id="FACE-3">
					<path class="st0" d="M1033.2,1458"/>
					<path class="st0" d="M1018,1417"/>
					<path class="st0" d="M1001.2,1423.9"/>
				</g>
			</g>
		</g>
		<circle id="SUN" class="st14" cx="3052.9" cy="152.5" r="149.5"/>
	</g>
</g>
</svg>
