<svg xmlns="http://www.w3.org/2000/svg" xmlns:xlink="http://www.w3.org/1999/xlink" viewBox="0 0 257.11 177.33"><defs><style>.cls-1{fill:url(#linear-gradient);}.cls-2{fill:none;stroke:#ed1c24;stroke-width:0.25px;}.cls-3{fill:#fff;}</style><linearGradient id="linear-gradient" x1="205.19" y1="-38.23" x2="62.27" y2="198.42" gradientUnits="userSpaceOnUse"><stop offset="0" stop-color="#f47b20"/><stop offset="0.09" stop-color="#f37520"/><stop offset="0.83" stop-color="#ef4423"/></linearGradient></defs><g id="Layer_2" data-name="Layer 2"><g id="Layer_1-2" data-name="Layer 1"><polygon class="cls-1" points="128.56 0 136.09 6.24 144.7 0.7 151.04 7.54 160.59 2.79 165.63 10.12 175.97 6.23 179.64 13.94 190.61 10.97 192.85 18.93 204.27 16.93 205.04 25.03 216.73 24.03 216.02 32.13 227.81 32.15 225.63 40.12 237.31 41.16 233.7 48.88 245.11 50.91 240.12 58.26 251.06 61.27 244.77 68.13 255.08 72.05 247.59 78.31 257.11 83.1 248.54 88.67 257.11 94.23 247.59 99.02 255.08 105.28 244.77 109.21 251.06 116.07 240.12 119.07 245.11 126.42 233.7 128.46 237.31 136.18 225.63 137.21 227.81 145.19 216.02 145.21 216.73 153.3 205.04 152.31 204.27 160.4 192.85 158.4 190.61 166.37 179.64 163.4 175.97 171.11 165.63 167.22 160.59 174.55 151.04 169.8 144.7 176.63 136.09 171.1 128.56 177.33 121.02 171.1 112.41 176.63 106.07 169.8 96.52 174.55 91.48 167.22 81.14 171.11 77.47 163.4 66.5 166.37 64.26 158.4 52.84 160.4 52.07 152.31 40.38 153.3 41.09 145.21 29.31 145.19 31.49 137.21 19.8 136.18 23.41 128.46 12.01 126.42 17 119.07 6.05 116.07 12.34 109.21 2.03 105.28 9.52 99.02 0 94.23 8.57 88.67 0 83.1 9.52 78.31 2.03 72.05 12.34 68.13 6.05 61.27 17 58.26 12.01 50.91 23.41 48.88 19.8 41.16 31.49 40.12 29.31 32.15 41.09 32.13 40.38 24.03 52.07 25.03 52.84 16.93 64.26 18.93 66.5 10.97 77.47 13.94 81.14 6.23 91.48 10.12 96.52 2.79 106.07 7.54 112.41 0.7 121.02 6.24 128.56 0"/><path class="cls-2" d="M127.57,10.77c13-.16,15.69,33.64,22.46,37.17,7.71,4,39.18-10.91,46.9,2.91,6.83,12.21-22.06,30.52-22.1,38.22,0,8,28.35,27.26,21.58,39s-37.69-3.15-45.24,1.07c-7.26,4.06-10,38.18-23.19,38.06-12.86-.12-14.79-34.21-21.44-37.84-7.39-4-38.7,11.13-46.17-2.24C53.25,114.4,82.28,95.66,82.5,87.62c.21-7.45-28.29-25.75-22.14-36.78,6.82-12.24,38,2,45.78-2.28C113.08,44.68,115,10.93,127.57,10.77Z"/><path class="cls-2" d="M132,11.93c12.86.61,13.58,34.12,20.08,38.06,7.28,4.41,39.11-8.59,45.93,5.17,6.07,12.26-23.42,28.77-23.86,36.36-.48,8,26.44,28.53,18.93,39.82s-37-5.24-44.6-1.51c-7.28,3.58-11.79,37.12-24.7,36.29s-12.89-34.68-19.31-38.72c-7-4.39-38.58,8.91-45.24-4.37-6.35-12.78,23.17-29.74,23.8-37.63.6-7.49-26.29-27.2-19.36-37.91,7.5-11.59,37.19,4.24,44.94.43C115.69,44.45,119.54,11.32,132,11.93Z"/><path class="cls-2" d="M136.49,13.09c12.73,1.39,11.46,34.59,17.7,39,6.86,4.79,39-6.28,44.95,7.42,5.33,12.33-24.75,27-25.61,34.49-.9,7.89,24.5,29.78,16.29,40.62s-36.31-7.32-44-4.09c-7.3,3.11-13.54,36-26.21,34.52s-11-35.13-17.18-39.6c-6.56-4.75-38.5,6.7-44.31-6.51-5.61-12.78,24.45-28,25.47-35.73,1-7.52-24.31-28.65-16.57-39,8.14-10.94,36.34,6.44,44.1,3.13C118.31,44.22,124.09,11.71,136.49,13.09Z"/><path class="cls-2" d="M141,14.25c12.6,2.16,9.36,35.05,15.33,39.85,6.43,5.17,38.93-4,43.95,9.68,4.58,12.4-26.08,25.28-27.34,32.63-1.35,7.82,22.57,31,13.63,41.4s-35.62-9.42-43.33-6.66c-7.33,2.62-15.29,35-27.72,32.75-12.67-2.26-9.11-35.56-15.06-40.48C94.26,118.33,62,127.91,57,114.78,52.18,102,82.78,88.54,84.18,80.94S61.83,50.84,70.39,40.78c8.77-10.3,35.51,8.66,43.26,5.85C120.94,44,128.64,12.1,141,14.25Z"/><path class="cls-2" d="M145.41,15.41c12.48,2.93,7.25,35.51,13,40.75,6,5.53,38.83-1.62,43,11.93,3.81,12.47-27.44,23.53-29.1,30.76-1.78,7.75,20.66,32.31,11,42.2-9.49,9.71-34.94-11.51-42.7-9.24-7.35,2.15-17,33.88-29.23,31-12.61-3-7.22-36-12.93-41.36s-38.28,2.27-42.44-10.77C51.84,97.82,83,86.17,84.74,78.72s-20.4-31.57-11-41.29S108.41,48.3,116.16,46C123.56,43.78,133.19,12.49,145.41,15.41Z"/><path class="cls-2" d="M149.87,16.57c12.35,3.71,5.15,36,10.58,41.64,5.6,5.89,38.72.71,42,14.19,3.05,12.55-28.79,21.78-30.85,28.9-2.22,7.68,18.75,33.57,8.35,43-10.15,9.18-34.25-13.59-42.07-11.82-7.37,1.67-18.8,32.78-30.74,29.22-12.55-3.75-5.34-36.42-10.8-42.25s-38.16,0-41.51-12.91,28.34-22.73,30.48-30c2.24-7.63-18.48-33-8.22-42.41C87,25,110.92,47.17,118.66,45.35,126.19,43.57,137.74,12.88,149.87,16.57Z"/><path class="cls-2" d="M154.33,17.73c12.22,4.48,3.06,36.39,8.2,42.54s38.6,3,41,16.43c2.27,12.64-30.14,20-32.6,27-2.67,7.62,16.85,34.85,5.7,43.79-10.8,8.66-33.56-15.68-41.43-14.4-7.39,1.2-20.54,31.67-32.25,27.45-12.48-4.5-3.48-36.83-8.67-43.13-5-6-38-2.18-40.58-15s29.66-21,32.16-28.15c2.66-7.65-16.58-34.55-5.44-43.53,10.52-8.48,33,15.32,40.74,14S142.29,13.27,154.33,17.73Z"/><path class="cls-2" d="M158.79,18.89c12.09,5.26,1,36.82,5.82,43.44s38.47,5.38,40,18.68c1.48,12.71-31.5,18.29-34.34,25.17-3.12,7.55,14.93,36.13,3,44.59-11.45,8.14-32.87-17.75-40.8-17-7.41.74-22.28,30.55-33.76,25.68-12.4-5.27-1.62-37.23-6.54-44-4.6-6.35-37.91-4.41-39.65-17.18C50.84,85.36,83.58,79.06,86.42,72,89.54,64.36,71.74,36,83.77,27.38c11.09-7.91,32.18,17.56,39.9,16.69S146.84,13.65,158.79,18.89Z"/><path class="cls-2" d="M163.25,20c12,6-1.09,37.26,3.44,44.34,4.44,6.92,38.34,7.71,39.05,20.94.69,12.79-32.86,16.53-36.09,23.31-3.58,7.47,13,37.43.4,45.37-12.09,7.66-32.18-19.82-40.16-19.55-7.43.27-24,29.43-35.27,23.91-12.33-6,.22-37.63-4.41-44.9-4.23-6.64-37.77-6.62-38.72-19.3-1-13,32.31-17.45,35.5-24.35,3.56-7.7-12.8-37.62.13-45.78,11.65-7.36,31.35,19.81,39.06,19.39C134.08,43,151.39,14,163.25,20Z"/><path class="cls-2" d="M50.39,90c-.17-13,33.63-15.69,37.16-22.46,4-7.71-10.91-39.18,2.91-46.9,12.21-6.82,30.52,22.06,38.22,22.1,8,0,27.26-28.35,39-21.58s-3.15,37.69,1.07,45.24c4.05,7.26,38.18,10,38.06,23.19-.12,12.87-34.21,14.79-37.84,21.44-4,7.4,11.13,38.7-2.24,46.17-12.75,7.13-31.49-21.91-39.53-22.13-7.45-.21-25.75,28.29-36.78,22.14-12.24-6.82,2-38-2.28-45.78C84.29,104.53,50.55,102.63,50.39,90Z"/><path class="cls-3" d="M79.76,61.87a13.41,13.41,0,0,1-4.3-.16,10,10,0,0,1-3.76-1.82l.52-5.19,5.71-.64a1.87,1.87,0,0,0,0,.25c0,.18,0,.42,0,.72v1c0,.36,0,.71.07,1A4.05,4.05,0,0,0,78.53,59a1.11,1.11,0,0,0,1.07.48,2.18,2.18,0,0,0,1.28-.62,4.4,4.4,0,0,0,.93-1.3,6.36,6.36,0,0,0,.52-1.65,5.78,5.78,0,0,0,.07-1.7A3.13,3.13,0,0,0,81.35,52a2.7,2.7,0,0,0-2-.54c0-.44.06-.83.11-1.18s.07-.57.1-.81,0-.38,0-.4a4.44,4.44,0,0,0,1.83-.56,3.43,3.43,0,0,0,1.15-1.12,3.79,3.79,0,0,0,.52-1.57,7.71,7.71,0,0,0,0-1.86,8.27,8.27,0,0,0-.14-.82,4,4,0,0,0-.27-.76,1.48,1.48,0,0,0-.45-.53,1,1,0,0,0-.72-.14A2.36,2.36,0,0,0,79.83,43a10.42,10.42,0,0,0-1.13,3.85l-5.81.64.49-4.87a12.61,12.61,0,0,1,2.2-1.41,18.94,18.94,0,0,1,2.6-1.11,16,16,0,0,1,3.56-.77,15.68,15.68,0,0,1,2.66-.07,7.55,7.55,0,0,1,2.47.53,4.78,4.78,0,0,1,1.89,1.36,4.39,4.39,0,0,1,.94,2.43,4.87,4.87,0,0,1-.17,2,4.51,4.51,0,0,1-1,1.66,8.26,8.26,0,0,1-1.64,1.42A18.85,18.85,0,0,1,84.7,50a8,8,0,0,1,1.93.2,5.1,5.1,0,0,1,1.64.67,3.89,3.89,0,0,1,1.78,3,5.08,5.08,0,0,1-.47,2.79,7.08,7.08,0,0,1-2,2.41,11.83,11.83,0,0,1-3.32,1.8A19.27,19.27,0,0,1,79.76,61.87Z"/><path class="cls-3" d="M117.44,57.41l-7.3.81,1-9.79L107,48.9l-1,9.78-7.3.81,2.19-22,7.33-.81-1,9.54,4.12-.45,1-9.55,7.37-.82Z"/><path class="cls-3" d="M130,40.94q4-.45,6,.77c1.4.85,2.22,2.42,2.48,4.72a10,10,0,0,1-.29,3.91,7.4,7.4,0,0,1-1.68,3c-1.55,1.64-4,2.63-7.19,3q-4.17.47-6.13-.93a6.22,6.22,0,0,1-2.47-4.75,8.68,8.68,0,0,1,.45-4.09,7.93,7.93,0,0,1,2.25-3.26A12.11,12.11,0,0,1,130,40.94Zm-.87,13.13A1.8,1.8,0,0,0,130.47,53a7.8,7.8,0,0,0,.74-2.43,21.13,21.13,0,0,0,.25-2.9,21.84,21.84,0,0,0-.1-2.57,4.67,4.67,0,0,0-.34-1.42.79.79,0,0,0-.85-.4,1.91,1.91,0,0,0-1.47,1.16,8.71,8.71,0,0,0-.8,2.45,17.74,17.74,0,0,0-.29,2.83,19.45,19.45,0,0,0,.07,2.32C127.84,53.47,128.32,54.15,129.11,54.07Z"/><path class="cls-3" d="M151.41,38.93l6.89-.76-1.49,14.88-5.48.6-.84-2.09-.21,0a6.91,6.91,0,0,1-2.19,2,7.19,7.19,0,0,1-2.94,1,4.6,4.6,0,0,1-3.3-.68,3.44,3.44,0,0,1-1.44-2.55,10,10,0,0,1,.05-2.15c.1-.86.18-1.68.26-2.44l.69-6.75,6.86-.76-.81,8.1c0,.18-.05.4-.07.66s0,.5,0,.74,0,.47-.05.69a4.36,4.36,0,0,0,0,.53,1.58,1.58,0,0,0,.32.83.86.86,0,0,0,.83.27,1.9,1.9,0,0,0,1.1-.53,4.7,4.7,0,0,0,.76-.87Z"/><path class="cls-3" d="M161.31,37.84l5.51-.61.79,2.47.23,0a7.39,7.39,0,0,1,1.77-2.29,5.61,5.61,0,0,1,3.12-1.2l.42,0a3.74,3.74,0,0,1,.65,0,5.88,5.88,0,0,1,.77.16,3.11,3.11,0,0,1,.81.34l-.71,7.12-3.69.41a10.86,10.86,0,0,0-.69-2.88,1.06,1.06,0,0,0-1.08-.72,2.05,2.05,0,0,0-.7.23,2.1,2.1,0,0,0-.73.75l-1,10.34-6.89.77Z"/><path class="cls-3" d="M97.35,84.34a6.61,6.61,0,0,1-.7,3.8,7,7,0,0,1-3.4,3l5,9.67-7.54.83-4-9-.37,0-1,9.58-7.3.81,2.19-22,8.88-1a21.75,21.75,0,0,1,3-.14,7.13,7.13,0,0,1,2.5.47,4.39,4.39,0,0,1,1.81,1.37A5,5,0,0,1,97.35,84.34Zm-9.19,5.91a2.14,2.14,0,0,0,1.43-.76,4.59,4.59,0,0,0,.86-1.55,8,8,0,0,0,.36-1.87,10.29,10.29,0,0,0,0-1.69,3.45,3.45,0,0,0-.47-1.47,1.34,1.34,0,0,0-1.39-.48l-1.52.17-.84,7.82Z"/><path class="cls-3" d="M105.51,93.11a11.77,11.77,0,0,0,0,1.44c0,.46,0,.86.09,1.22a6.59,6.59,0,0,0,.1.68,2.78,2.78,0,0,0,.23.67,1.55,1.55,0,0,0,.4.5.81.81,0,0,0,.65.15,1.52,1.52,0,0,0,.67-.27,3.92,3.92,0,0,0,.71-.66,4.91,4.91,0,0,0,1.07-2.28l5.54-.61-.48,3.71a7.23,7.23,0,0,1-1.47.92,13.19,13.19,0,0,1-1.8.69,18.29,18.29,0,0,1-2,.49c-.67.13-1.3.23-1.91.3a15.51,15.51,0,0,1-3.18,0,7,7,0,0,1-2.65-.77,5.24,5.24,0,0,1-1.93-1.79,6.77,6.77,0,0,1-1-3,10.47,10.47,0,0,1,.16-3.3,7.08,7.08,0,0,1,1.45-3,8.77,8.77,0,0,1,3.09-2.35,15.62,15.62,0,0,1,5.11-1.32,9.85,9.85,0,0,1,5.2.49,3.6,3.6,0,0,1,2.07,3.08,8.6,8.6,0,0,1,0,2,5.59,5.59,0,0,1-.61,1.9Zm4-4.52a2.14,2.14,0,0,0-.5-1.38,1,1,0,0,0-.85-.28,1.61,1.61,0,0,0-1,.46,3.75,3.75,0,0,0-.72,1,9.11,9.11,0,0,0-.53,1.43,12.19,12.19,0,0,0-.32,1.66l3.85-.43c0-.27,0-.56,0-.86s0-.52,0-.82A6.93,6.93,0,0,0,109.56,88.59Z"/><path class="cls-3" d="M125.06,85.3a9.27,9.27,0,0,1,3.18-2.51,6.31,6.31,0,0,1,2.29-.66,4.61,4.61,0,0,1,3,.57A3,3,0,0,1,135,85a7.54,7.54,0,0,1,0,1.08c0,.42-.05.86-.09,1.33s-.09.92-.14,1.4-.09.89-.11,1.26l-.69,6.74-6.86.76.88-9c0-.3,0-.6.07-.92a3.88,3.88,0,0,0,0-.83,1.26,1.26,0,0,0-.35-.8.88.88,0,0,0-.79-.24,1.81,1.81,0,0,0-1.12.57,8.79,8.79,0,0,0-.78.84l-1.06,10.75-6.9.77,1.47-14.87,5.5-.61.85,2.09Z"/><path class="cls-3" d="M137,81.79a18.86,18.86,0,0,0,2.13-.85,8.79,8.79,0,0,0,1.64-1,8.47,8.47,0,0,0,1.38-1.42,20.67,20.67,0,0,0,1.37-2L147,76.1l-.47,4.63,2.63-.29-.19,2.31-2.67.3-.65,6.74c-.06.53-.09,1-.12,1.42a5.67,5.67,0,0,0,0,1c.05.46.24.72.58.8a7,7,0,0,0,1.86,0l-.25,2.39a4.17,4.17,0,0,1-.71.18l-1.07.2c-.39.08-.8.15-1.21.21l-1.1.14a11.71,11.71,0,0,1-1.67.06,4.22,4.22,0,0,1-1.5-.31,2.62,2.62,0,0,1-1.15-.92,3.59,3.59,0,0,1-.59-1.78q0-.41-.06-1a9.59,9.59,0,0,1,.07-1.37l.67-6.89-2.63.3Z"/><path class="cls-3" d="M151.22,81.47a15.33,15.33,0,0,1,3.4-1.62,19.71,19.71,0,0,1,4-.84,16,16,0,0,1,3.62-.06,6.13,6.13,0,0,1,2.37.73A3.52,3.52,0,0,1,166,81.07a5.49,5.49,0,0,1,.56,2,12,12,0,0,1,.07,1.39c0,.5,0,.93,0,1.27l-.77,7.61-5.44.61-.85-2.1-.2,0A7.35,7.35,0,0,1,157,93.92a7.12,7.12,0,0,1-2.78.94,5.51,5.51,0,0,1-1.62-.06,4.12,4.12,0,0,1-1.46-.57A3.59,3.59,0,0,1,150,93.09a4.11,4.11,0,0,1-.58-1.8,3.94,3.94,0,0,1,.66-2.9,5.88,5.88,0,0,1,2.36-1.83,14.43,14.43,0,0,1,3.47-1.06q2-.34,4-.57c0-.23,0-.56.06-1a6.58,6.58,0,0,0,0-1.11,2.06,2.06,0,0,0-.45-1.1,1.45,1.45,0,0,0-1.39-.37,2.09,2.09,0,0,0-1.66.88,3.61,3.61,0,0,0-.54,1.75l-4.94.55Zm8.43,5.09-.6.07a4.84,4.84,0,0,0-1.65.43,3.21,3.21,0,0,0-1,.79,2.69,2.69,0,0,0-.53,1,3.08,3.08,0,0,0-.09,1A1.59,1.59,0,0,0,156.3,91a1.41,1.41,0,0,0,1,.3,2.33,2.33,0,0,0,1.35-.66,2.17,2.17,0,0,0,.71-1.45Z"/><path class="cls-3" d="M175.47,92.23l-6.89.76,2.28-23.24,6.92-.77Z"/><path class="cls-3" d="M80.57,144l-7.9.87-1.07-5.32-6.25.69-1.81,5.64-3.28.37,7.59-22.57,8-.88Zm-14.38-6.35,4.9-.54-1.8-9.1Z"/><path class="cls-3" d="M81.33,129.21l7.16-.79L91,138.2l3.83-10.48,3.58-.4L92.33,142.7l-7.06.78Z"/><path class="cls-3" d="M99.82,128.43a15.09,15.09,0,0,1,3.39-1.63,20,20,0,0,1,4-.84,15.79,15.79,0,0,1,3.61,0,6.14,6.14,0,0,1,2.38.72,3.52,3.52,0,0,1,1.35,1.39,5.61,5.61,0,0,1,.56,2,12.07,12.07,0,0,1,.07,1.39c0,.51,0,.93-.05,1.28l-.76,7.61-5.44.6-.85-2.1-.2,0a7.42,7.42,0,0,1-2.32,2.08,7.13,7.13,0,0,1-2.79.95,5.43,5.43,0,0,1-1.61-.06,4.12,4.12,0,0,1-1.47-.58A3.7,3.7,0,0,1,98.57,140a4.25,4.25,0,0,1-.57-1.8,3.92,3.92,0,0,1,.65-2.89,6.06,6.06,0,0,1,2.36-1.84,14.38,14.38,0,0,1,3.48-1c1.31-.24,2.62-.43,4-.58,0-.23,0-.55.07-1a7.91,7.91,0,0,0,0-1.11,2.26,2.26,0,0,0-.45-1.1,1.46,1.46,0,0,0-1.39-.37,2.11,2.11,0,0,0-1.67.89,3.58,3.58,0,0,0-.54,1.75l-4.93.55Zm8.43,5.08-.61.07A4.83,4.83,0,0,0,106,134a3.13,3.13,0,0,0-1,.78,2.7,2.7,0,0,0-.61,2,1.6,1.6,0,0,0,.56,1.17,1.35,1.35,0,0,0,1,.29,2.33,2.33,0,0,0,1.34-.66,2.14,2.14,0,0,0,.72-1.45Z"/><path class="cls-3" d="M124,139.18l-6.86.77,1.46-14.88,6.93-.77Zm1.92-19.4a2.75,2.75,0,0,1-.17,1.39,3.16,3.16,0,0,1-.74,1.07,3.52,3.52,0,0,1-1.13.74,4.64,4.64,0,0,1-1.36.36,3.89,3.89,0,0,1-2.34-.39,2.35,2.35,0,0,1-1.14-1.93,3,3,0,0,1,.16-1.37,2.89,2.89,0,0,1,.72-1.07,3.83,3.83,0,0,1,1.15-.73,5.62,5.62,0,0,1,1.41-.36,3.89,3.89,0,0,1,2.31.4A2.29,2.29,0,0,1,126,119.78Z"/><path class="cls-3" d="M134,138.08l-6.9.77,2.28-23.24,6.93-.77Z"/><path class="cls-3" d="M138.27,124.16a15.33,15.33,0,0,1,3.4-1.62,18.44,18.44,0,0,1,4-.84,16,16,0,0,1,3.62-.06,6,6,0,0,1,2.37.73,3.46,3.46,0,0,1,1.35,1.39,5.49,5.49,0,0,1,.56,1.95,12.25,12.25,0,0,1,.07,1.4c0,.5,0,.92,0,1.27l-.77,7.61-5.44.6-.85-2.09-.2,0a7.35,7.35,0,0,1-2.32,2.09,7.12,7.12,0,0,1-2.78.94,5.51,5.51,0,0,1-1.62-.06,4.12,4.12,0,0,1-1.46-.57,3.59,3.59,0,0,1-1.12-1.14,4.11,4.11,0,0,1-.58-1.8,3.93,3.93,0,0,1,.66-2.9,6,6,0,0,1,2.36-1.84,14.9,14.9,0,0,1,3.47-1.05c1.31-.23,2.63-.43,4-.57q0-.34.06-1a6.48,6.48,0,0,0,0-1.1,2,2,0,0,0-.45-1.1,1.45,1.45,0,0,0-1.39-.38,2.12,2.12,0,0,0-1.66.89,3.61,3.61,0,0,0-.54,1.75l-4.94.55Zm8.43,5.09-.61.06a5.08,5.08,0,0,0-1.64.44,3.07,3.07,0,0,0-1,.79,2.61,2.61,0,0,0-.53,1,3,3,0,0,0-.09,1,1.63,1.63,0,0,0,.56,1.17,1.41,1.41,0,0,0,1,.3,2.34,2.34,0,0,0,1.35-.67,2.14,2.14,0,0,0,.71-1.44Z"/><path class="cls-3" d="M161.1,135.07l-5.47.61,2.28-23.24,6.92-.77-1.05,10.58.24,0a6.53,6.53,0,0,1,2.31-2.12,7.5,7.5,0,0,1,2.73-.87,4.82,4.82,0,0,1,2,.14,3.2,3.2,0,0,1,1.37.82,3.82,3.82,0,0,1,.84,1.38,7.91,7.91,0,0,1,.4,1.77c0,.31.06.79.09,1.42a18.16,18.16,0,0,1-.07,2.15,17.66,17.66,0,0,1-.41,2.47,9,9,0,0,1-.92,2.38,5.83,5.83,0,0,1-1.64,1.86,5.07,5.07,0,0,1-2.55.93,8.11,8.11,0,0,1-3.41-.37,6.09,6.09,0,0,1-1.3-.66,3.21,3.21,0,0,1-.87-.85l-.23,0Zm3.49-3.43a1.59,1.59,0,0,0,1.25-1,7.84,7.84,0,0,0,.66-2.13,17.58,17.58,0,0,0,.23-2.38,16.9,16.9,0,0,0,0-1.76,2.5,2.5,0,0,0-.35-1.09.81.81,0,0,0-.84-.35,1.92,1.92,0,0,0-1.2.63,7.26,7.26,0,0,0-.75.92l-.65,6.19a3.47,3.47,0,0,0,.72.71A1.29,1.29,0,0,0,164.59,131.64Z"/><path class="cls-3" d="M182.29,132.72l-6.9.77,2.28-23.24,6.93-.77Z"/><path class="cls-3" d="M192.25,124.74a11.77,11.77,0,0,0,0,1.44c0,.46,0,.86.08,1.22,0,.21.06.43.11.68a2.78,2.78,0,0,0,.23.67,1.43,1.43,0,0,0,.4.5.85.85,0,0,0,.65.15,1.48,1.48,0,0,0,.67-.28,3.31,3.31,0,0,0,.71-.66,5.08,5.08,0,0,0,1.07-2.27l5.54-.61-.48,3.71a7.52,7.52,0,0,1-1.47.92,13.33,13.33,0,0,1-1.81.69,17.54,17.54,0,0,1-2,.49q-1,.2-1.92.3a15.4,15.4,0,0,1-3.17.05,7,7,0,0,1-2.65-.77,5.24,5.24,0,0,1-1.93-1.79,6.64,6.64,0,0,1-1-3,10.19,10.19,0,0,1,.16-3.3,7.15,7.15,0,0,1,1.44-3,9,9,0,0,1,3.1-2.34,15.62,15.62,0,0,1,5.1-1.32,10,10,0,0,1,5.2.48,3.59,3.59,0,0,1,2.07,3.09,8.08,8.08,0,0,1-.05,2,5.18,5.18,0,0,1-.61,1.9Zm4-4.52a2.14,2.14,0,0,0-.49-1.38,1.05,1.05,0,0,0-.85-.28,1.61,1.61,0,0,0-1,.46,3.55,3.55,0,0,0-.72,1,8.21,8.21,0,0,0-.53,1.43,10.84,10.84,0,0,0-.33,1.66l3.85-.43c0-.27,0-.56.05-.86s0-.53,0-.82A5.3,5.3,0,0,0,196.29,120.22Z"/></g></g></svg>