<?xml version="1.0" encoding="utf-8"?>
<!-- Generator: Adobe Illustrator 25.0.1, SVG Export Plug-In . SVG Version: 6.00 Build 0)  -->
<svg version="1.1" id="Layer_1" xmlns="http://www.w3.org/2000/svg" xmlns:xlink="http://www.w3.org/1999/xlink" x="0px" y="0px"
	 viewBox="0 0 257.1 177.3" style="enable-background:new 0 0 257.1 177.3;" xml:space="preserve">
<style type="text/css">
	.st0{fill:url(#SVGID_1_);}
	.st1{fill:none;stroke:#ED1C24;stroke-width:0.25;}
	.st2{fill:#FFFFFF;}
</style>
<g id="Layer_2_1_">
	<g id="Layer_1-2">
		
			<linearGradient id="SVGID_1_" gradientUnits="userSpaceOnUse" x1="205.1942" y1="218.2275" x2="62.2742" y2="-18.4225" gradientTransform="matrix(1 0 0 -1 0 180)">
			<stop  offset="0" style="stop-color:#F47B20"/>
			<stop  offset="9.000000e-02" style="stop-color:#F37520"/>
			<stop  offset="0.83" style="stop-color:#EF4423"/>
		</linearGradient>
		<polygon class="st0" points="128.6,0 136.1,6.2 144.7,0.7 151,7.5 160.6,2.8 165.6,10.1 176,6.2 179.6,13.9 190.6,11 192.9,18.9 
			204.3,16.9 205,25 216.7,24 216,32.1 227.8,32.2 225.6,40.1 237.3,41.2 233.7,48.9 245.1,50.9 240.1,58.3 251.1,61.3 244.8,68.1 
			255.1,72.1 247.6,78.3 257.1,83.1 248.5,88.7 257.1,94.2 247.6,99 255.1,105.3 244.8,109.2 251.1,116.1 240.1,119.1 245.1,126.4 
			233.7,128.5 237.3,136.2 225.6,137.2 227.8,145.2 216,145.2 216.7,153.3 205,152.3 204.3,160.4 192.9,158.4 190.6,166.4 
			179.6,163.4 176,171.1 165.6,167.2 160.6,174.6 151,169.8 144.7,176.6 136.1,171.1 128.6,177.3 121,171.1 112.4,176.6 
			106.1,169.8 96.5,174.6 91.5,167.2 81.1,171.1 77.5,163.4 66.5,166.4 64.3,158.4 52.8,160.4 52.1,152.3 40.4,153.3 41.1,145.2 
			29.3,145.2 31.5,137.2 19.8,136.2 23.4,128.5 12,126.4 17,119.1 6.1,116.1 12.3,109.2 2,105.3 9.5,99 0,94.2 8.6,88.7 0,83.1 
			9.5,78.3 2,72.1 12.3,68.1 6.1,61.3 17,58.3 12,50.9 23.4,48.9 19.8,41.2 31.5,40.1 29.3,32.2 41.1,32.1 40.4,24 52.1,25 
			52.8,16.9 64.3,18.9 66.5,11 77.5,13.9 81.1,6.2 91.5,10.1 96.5,2.8 106.1,7.5 112.4,0.7 121,6.2 		"/>
		<path class="st1" d="M127.6,10.8c13-0.2,15.7,33.6,22.5,37.2c7.7,4,39.2-10.9,46.9,2.9c6.8,12.2-22.1,30.5-22.1,38.2
			c0,8,28.4,27.3,21.6,39s-37.7-3.2-45.2,1.1c-7.3,4.1-10,38.2-23.2,38.1c-12.9-0.1-14.8-34.2-21.4-37.8c-7.4-4-38.7,11.1-46.2-2.2
			c-7.1-12.7,21.9-31.5,22.1-39.5c0.2-7.4-28.3-25.8-22.1-36.8c6.8-12.2,38,2,45.8-2.3C113.1,44.7,115,10.9,127.6,10.8z"/>
		<path class="st1" d="M132,11.9c12.9,0.6,13.6,34.1,20.1,38.1c7.3,4.4,39.1-8.6,45.9,5.2c6.1,12.3-23.4,28.8-23.9,36.4
			c-0.5,8,26.4,28.5,18.9,39.8s-37-5.2-44.6-1.5c-7.3,3.6-11.8,37.1-24.7,36.3s-12.9-34.7-19.3-38.7c-7-4.4-38.6,8.9-45.2-4.4
			C52.9,110.2,82.4,93.3,83,85.4c0.6-7.5-26.3-27.2-19.4-37.9c7.5-11.6,37.2,4.2,44.9,0.4C115.7,44.5,119.5,11.3,132,11.9z"/>
		<path class="st1" d="M136.5,13.1c12.7,1.4,11.5,34.6,17.7,39c6.9,4.8,39-6.3,44.9,7.4c5.3,12.3-24.8,27-25.6,34.5
			c-0.9,7.9,24.5,29.8,16.3,40.6s-36.3-7.3-44-4.1c-7.3,3.1-13.5,36-26.2,34.5s-11-35.1-17.2-39.6c-6.6-4.8-38.5,6.7-44.3-6.5
			c-5.6-12.8,24.5-28,25.5-35.7c1-7.5-24.3-28.7-16.6-39c8.1-10.9,36.3,6.4,44.1,3.1C118.3,44.2,124.1,11.7,136.5,13.1z"/>
		<path class="st1" d="M141,14.3c12.6,2.2,9.4,35,15.3,39.8c6.4,5.2,38.9-4,43.9,9.7c4.6,12.4-26.1,25.3-27.3,32.6
			c-1.4,7.8,22.6,31,13.6,41.4s-35.6-9.4-43.3-6.7c-7.3,2.6-15.3,35-27.7,32.8c-12.7-2.3-9.1-35.6-15.1-40.5
			c-6.2-5.1-38.5,4.5-43.5-8.6C52.2,102,82.8,88.5,84.2,80.9S61.8,50.8,70.4,40.8c8.8-10.3,35.5,8.7,43.3,5.8
			C120.9,44,128.6,12.1,141,14.3z"/>
		<path class="st1" d="M145.4,15.4c12.5,2.9,7.3,35.5,13,40.8c6,5.5,38.8-1.6,43,11.9c3.8,12.5-27.4,23.5-29.1,30.8
			c-1.8,7.8,20.7,32.3,11,42.2c-9.5,9.7-34.9-11.5-42.7-9.2c-7.4,2.1-17,33.9-29.2,31c-12.6-3-7.2-36-12.9-41.4s-38.3,2.3-42.4-10.8
			c-4.2-12.9,27-24.5,28.7-32s-20.4-31.6-11-41.3s34.7,10.9,42.4,8.6C123.6,43.8,133.2,12.5,145.4,15.4z"/>
		<path class="st1" d="M149.9,16.6c12.4,3.7,5.1,36,10.6,41.6c5.6,5.9,38.7,0.7,42,14.2c3.1,12.6-28.8,21.8-30.9,28.9
			c-2.2,7.7,18.8,33.6,8.4,43c-10.1,9.2-34.3-13.6-42.1-11.8c-7.4,1.7-18.8,32.8-30.7,29.2c-12.6-3.8-5.3-36.4-10.8-42.3
			s-38.2,0-41.5-12.9s28.3-22.7,30.5-30c2.2-7.6-18.5-33-8.2-42.4c9.9-9.1,33.8,13,41.6,11.2C126.2,43.6,137.7,12.9,149.9,16.6z"/>
		<path class="st1" d="M154.3,17.7c12.2,4.5,3.1,36.4,8.2,42.5s38.6,3,41,16.4c2.3,12.6-30.1,20-32.6,27
			c-2.7,7.6,16.9,34.8,5.7,43.8c-10.8,8.7-33.6-15.7-41.4-14.4c-7.4,1.2-20.5,31.7-32.3,27.4c-12.5-4.5-3.5-36.8-8.7-43.1
			c-5-6-38-2.2-40.6-15s29.7-21,32.2-28.2c2.7-7.7-16.6-34.5-5.4-43.5c10.5-8.5,33,15.3,40.7,14S142.3,13.3,154.3,17.7z"/>
		<path class="st1" d="M158.8,18.9c12.1,5.3,1,36.8,5.8,43.4s38.5,5.4,40,18.7c1.5,12.7-31.5,18.3-34.3,25.2
			c-3.1,7.6,14.9,36.1,3,44.6c-11.4,8.1-32.9-17.8-40.8-17c-7.4,0.7-22.3,30.6-33.8,25.7c-12.4-5.3-1.6-37.2-6.5-44
			c-4.6-6.3-37.9-4.4-39.7-17.2C50.8,85.4,83.6,79.1,86.4,72c3.1-7.6-14.7-36-2.7-44.6c11.1-7.9,32.2,17.6,39.9,16.7
			S146.8,13.6,158.8,18.9z"/>
		<path class="st1" d="M163.3,20c12,6-1.1,37.3,3.4,44.3c4.4,6.9,38.3,7.7,39.1,20.9c0.7,12.8-32.9,16.5-36.1,23.3
			c-3.6,7.5,13,37.4,0.4,45.4c-12.1,7.7-32.2-19.8-40.2-19.6c-7.4,0.3-24,29.4-35.3,23.9c-12.3-6,0.2-37.6-4.4-44.9
			c-4.2-6.6-37.8-6.6-38.7-19.3c-1-13,32.3-17.4,35.5-24.3c3.6-7.7-12.8-37.6,0.1-45.8c11.7-7.4,31.3,19.8,39.1,19.4
			C134.1,43,151.4,14,163.3,20z"/>
		<path class="st1" d="M50.4,90C50.2,77,84,74.3,87.6,67.5c4-7.7-10.9-39.2,2.9-46.9c12.2-6.8,30.5,22.1,38.2,22.1
			c8,0,27.3-28.4,39-21.6s-3.1,37.7,1.1,45.2c4.1,7.3,38.2,10,38.1,23.2c-0.1,12.9-34.2,14.8-37.8,21.4c-4,7.4,11.1,38.7-2.2,46.2
			c-12.8,7.1-31.5-21.9-39.5-22.1c-7.4-0.2-25.8,28.3-36.8,22.1c-12.2-6.8,2-38-2.3-45.8C84.3,104.5,50.5,102.6,50.4,90z"/>
		<path class="st2" d="M126.4,57.4l-7.3,0.8l1-9.8l-4.1,0.5l-1,9.8l-7.3,0.8l2.2-22l7.3-0.8l-1,9.5l4.1-0.5l1-9.5l7.4-0.8
			L126.4,57.4z"/>
		<path class="st2" d="M139,40.9c2.7-0.3,4.7,0,6,0.8c1.4,0.8,2.2,2.4,2.5,4.7c0.2,1.3,0.1,2.6-0.3,3.9c-0.3,1.1-0.9,2.1-1.7,3
			c-1.6,1.6-4,2.6-7.2,3c-2.8,0.3-4.8,0-6.1-0.9c-1.5-1.1-2.4-2.9-2.5-4.8c-0.2-1.4,0-2.8,0.5-4.1c0.5-1.3,1.2-2.4,2.3-3.3
			C134.3,41.9,136.6,41.1,139,40.9z M138.1,54.1c0.6-0.1,1.1-0.5,1.3-1.1c0.4-0.8,0.6-1.6,0.7-2.4c0.1-1,0.2-1.9,0.3-2.9
			c0-0.9,0-1.7-0.1-2.6c0-0.5-0.2-1-0.3-1.4c-0.2-0.3-0.5-0.5-0.9-0.4c-0.7,0.1-1.2,0.5-1.5,1.2c-0.4,0.8-0.7,1.6-0.8,2.5
			c-0.2,0.9-0.3,1.9-0.3,2.8c0,0.8,0,1.5,0.1,2.3C136.8,53.5,137.3,54.2,138.1,54.1L138.1,54.1z"/>
		<path class="st2" d="M160.4,38.9l6.9-0.8l-1.5,14.9l-5.5,0.6l-0.8-2.1h-0.2c-0.6,0.8-1.3,1.5-2.2,2c-0.9,0.5-1.9,0.9-2.9,1
			c-1.1,0.2-2.3,0-3.3-0.7c-0.8-0.6-1.4-1.5-1.4-2.5c-0.1-0.7,0-1.4,0.1-2.2c0.1-0.9,0.2-1.7,0.3-2.4l0.7-6.8l6.9-0.8l-0.8,8.1
			c0,0.2-0.1,0.4-0.1,0.7s0,0.5,0,0.7s0,0.5-0.1,0.7c0,0.2,0,0.4,0,0.5c0,0.3,0.1,0.6,0.3,0.8c0.2,0.2,0.5,0.3,0.8,0.3
			c0.4-0.1,0.8-0.2,1.1-0.5c0.3-0.3,0.5-0.5,0.8-0.9L160.4,38.9z"/>
		<path class="st2" d="M170.3,37.8l5.5-0.6l0.8,2.5h0.2c0.4-0.9,1-1.7,1.8-2.3c0.9-0.7,2-1.1,3.1-1.2h0.4c0.2,0,0.4,0,0.6,0
			c0.3,0,0.5,0.1,0.8,0.2c0.3,0.1,0.6,0.2,0.8,0.3l-0.7,7.1l-3.7,0.4c-0.1-1-0.3-2-0.7-2.9c-0.2-0.5-0.6-0.8-1.1-0.7
			c-0.2,0-0.5,0.1-0.7,0.2c-0.3,0.2-0.6,0.4-0.7,0.8l-1,10.3l-6.9,0.8L170.3,37.8z"/>
		<path class="st2" d="M97.3,84.3c0.2,1.3-0.1,2.6-0.7,3.8c-0.8,1.3-2,2.4-3.4,3l5,9.7l-7.5,0.8l-4-9h-0.4l-1,9.6L78,103l2.2-22
			l8.9-1c1-0.1,2-0.2,3-0.1c0.9,0,1.7,0.2,2.5,0.5c0.7,0.3,1.3,0.8,1.8,1.4C97,82.5,97.3,83.4,97.3,84.3z M88.2,90.3
			c0.6-0.1,1.1-0.3,1.4-0.8c0.4-0.5,0.7-1,0.9-1.6c0.2-0.6,0.3-1.2,0.4-1.9c0-0.6,0-1.1,0-1.7c0-0.5-0.2-1-0.5-1.5
			c-0.3-0.4-0.9-0.6-1.4-0.5l-1.5,0.2l-0.8,7.8L88.2,90.3z"/>
		<path class="st2" d="M105.5,93.1c0,0.5,0,1,0,1.4c0,0.5,0,0.9,0.1,1.2c0,0.2,0.1,0.5,0.1,0.7c0,0.2,0.1,0.5,0.2,0.7
			c0.1,0.2,0.2,0.4,0.4,0.5c0.2,0.1,0.4,0.2,0.7,0.2c0.2,0,0.5-0.1,0.7-0.3c0.3-0.2,0.5-0.4,0.7-0.7c0.5-0.7,0.9-1.4,1.1-2.3L115,94
			l-0.5,3.7c-0.5,0.4-0.9,0.7-1.5,0.9c-0.6,0.3-1.2,0.5-1.8,0.7c-0.7,0.2-1.3,0.4-2,0.5c-0.7,0.1-1.3,0.2-1.9,0.3
			c-1.1,0.1-2.1,0.1-3.2,0c-0.9-0.1-1.8-0.3-2.7-0.8c-0.8-0.4-1.4-1-1.9-1.8c-0.6-0.9-0.9-1.9-1-3c-0.1-1.1-0.1-2.2,0.2-3.3
			c0.2-1.1,0.7-2.1,1.4-3c0.8-1,1.9-1.8,3.1-2.3c1.6-0.7,3.3-1.2,5.1-1.3c1.7-0.3,3.5-0.1,5.2,0.5c1.2,0.6,2,1.7,2.1,3.1
			c0.1,0.7,0.1,1.3,0,2c-0.1,0.7-0.3,1.3-0.6,1.9L105.5,93.1z M109.5,88.6c0-0.5-0.2-1-0.5-1.4c-0.2-0.2-0.5-0.3-0.8-0.3
			c-0.4,0-0.7,0.2-1,0.5c-0.3,0.3-0.5,0.6-0.7,1c-0.2,0.5-0.4,0.9-0.5,1.4c-0.1,0.5-0.3,1.1-0.3,1.7l3.8-0.4c0-0.3,0-0.6,0-0.9
			s0-0.5,0-0.8C109.5,89.1,109.5,88.9,109.5,88.6L109.5,88.6z"/>
		<path class="st2" d="M125.1,85.3c0.9-1.1,1.9-1.9,3.2-2.5c0.7-0.4,1.5-0.6,2.3-0.7c1-0.2,2.1,0,3,0.6c0.8,0.5,1.4,1.3,1.5,2.3
			c0,0.4,0,0.7,0,1.1c0,0.4-0.1,0.9-0.1,1.3s-0.1,0.9-0.1,1.4s-0.1,0.9-0.1,1.3l-0.7,6.7l-6.9,0.8l0.9-9c0-0.3,0-0.6,0.1-0.9
			c0-0.3,0-0.6,0-0.8c0-0.3-0.1-0.6-0.3-0.8c-0.2-0.2-0.5-0.3-0.8-0.2c-0.4,0.1-0.8,0.3-1.1,0.6c-0.3,0.3-0.5,0.5-0.8,0.8L124,97.9
			l-6.9,0.8l1.5-14.9l5.5-0.6l0.8,2.1L125.1,85.3z"/>
		<path class="st2" d="M137,81.8c0.7-0.2,1.4-0.5,2.1-0.8c0.6-0.3,1.1-0.6,1.6-1c0.5-0.4,1-0.9,1.4-1.4c0.5-0.6,1-1.3,1.4-2l3.5-0.4
			l-0.5,4.6l2.6-0.3l-0.2,2.3l-2.7,0.3l-0.6,6.7c-0.1,0.5-0.1,1-0.1,1.4c0,0.3,0,0.7,0,1c0.1,0.5,0.2,0.7,0.6,0.8
			c0.6,0.1,1.2,0.1,1.9,0l-0.3,2.4c-0.2,0.1-0.5,0.1-0.7,0.2l-1.1,0.2c-0.4,0.1-0.8,0.2-1.2,0.2l-1.1,0.1c-0.6,0.1-1.1,0.1-1.7,0.1
			c-0.5,0-1-0.1-1.5-0.3c-0.5-0.2-0.9-0.5-1.1-0.9c-0.4-0.5-0.6-1.1-0.6-1.8c0-0.3,0-0.6-0.1-1c0-0.5,0-0.9,0.1-1.4l0.7-6.9
			l-2.6,0.3L137,81.8z"/>
		<path class="st2" d="M151.2,81.5c1.1-0.7,2.2-1.2,3.4-1.6c1.3-0.4,2.6-0.7,4-0.8c1.2-0.2,2.4-0.2,3.6-0.1c0.8,0.1,1.6,0.3,2.4,0.7
			c0.6,0.3,1.1,0.8,1.4,1.4c0.3,0.6,0.5,1.3,0.6,2c0.1,0.5,0.1,0.9,0.1,1.4c0,0.5,0,0.9,0,1.3l-0.8,7.6l-5.4,0.6l-0.9-2.1h-0.2
			c-0.6,0.9-1.4,1.6-2.4,2.1c-0.9,0.5-1.8,0.8-2.8,0.9c-0.5,0.1-1.1,0-1.6-0.1c-0.5-0.1-1-0.3-1.5-0.6c-0.5-0.3-0.9-0.7-1.1-1.1
			c-0.3-0.5-0.5-1.2-0.6-1.8c-0.2-1,0.1-2.1,0.7-2.9c0.6-0.8,1.4-1.4,2.4-1.8c1.1-0.5,2.3-0.9,3.5-1.1c1.3-0.2,2.7-0.4,4-0.6
			c0-0.2,0-0.6,0.1-1c0-0.4,0-0.7,0-1.1c0-0.4-0.2-0.8-0.4-1.1c-0.4-0.4-0.9-0.5-1.4-0.4c-0.7,0-1.3,0.3-1.7,0.9
			c-0.3,0.5-0.5,1.1-0.5,1.8l-4.9,0.6L151.2,81.5z M159.6,86.6l-0.6,0.1c-0.6,0-1.1,0.2-1.6,0.4c-0.4,0.2-0.7,0.5-1,0.8
			c-0.2,0.3-0.4,0.6-0.5,1c-0.1,0.3-0.1,0.7-0.1,1c0,0.4,0.2,0.9,0.5,1.2c0.3,0.2,0.6,0.3,1,0.3c0.5-0.1,1-0.3,1.4-0.7
			c0.4-0.4,0.7-0.9,0.7-1.4L159.6,86.6z"/>
		<path class="st2" d="M175.5,92.2l-6.9,0.8l2.3-23.2l6.9-0.8L175.5,92.2z"/>
		<path class="st2" d="M80.6,144l-7.9,0.9l-1.1-5.3l-6.3,0.7l-1.8,5.6l-3.3,0.4l7.6-22.6l8-0.9L80.6,144z M66.2,137.6l4.9-0.5
			l-1.8-9.1L66.2,137.6z"/>
		<path class="st2" d="M81.3,129.2l7.2-0.8l2.5,9.8l3.8-10.5l3.6-0.4l-6.1,15.4l-7.1,0.8L81.3,129.2z"/>
		<path class="st2" d="M99.8,128.4c1.1-0.7,2.2-1.2,3.4-1.6c1.3-0.4,2.6-0.7,4-0.8c1.2-0.1,2.4-0.1,3.6,0c0.8,0.1,1.6,0.3,2.4,0.7
			c0.6,0.3,1,0.8,1.3,1.4c0.3,0.6,0.5,1.3,0.6,2c0.1,0.5,0.1,0.9,0.1,1.4c0,0.5,0,0.9-0.1,1.3l-0.8,7.6l-5.4,0.6l-0.8-2.1h-0.2
			c-0.6,0.8-1.4,1.6-2.3,2.1c-0.9,0.5-1.8,0.8-2.8,0.9c-0.5,0.1-1.1,0-1.6-0.1c-0.5-0.1-1-0.3-1.5-0.6c-0.5-0.3-0.8-0.7-1.1-1.2
			c-0.3-0.5-0.5-1.2-0.6-1.8c-0.2-1,0.1-2,0.7-2.9c0.6-0.8,1.4-1.4,2.4-1.8c1.1-0.5,2.3-0.8,3.5-1c1.3-0.2,2.6-0.4,4-0.6
			c0-0.2,0-0.6,0.1-1c0-0.4,0-0.7,0-1.1c0-0.4-0.2-0.8-0.4-1.1c-0.4-0.4-0.9-0.5-1.4-0.4c-0.7,0-1.3,0.3-1.7,0.9
			c-0.3,0.5-0.5,1.1-0.5,1.8l-4.9,0.6L99.8,128.4z M108.3,133.5l-0.6,0.1c-0.6,0-1.1,0.2-1.6,0.4c-0.4,0.2-0.7,0.5-1,0.8
			c-0.5,0.6-0.7,1.3-0.6,2c0,0.5,0.2,0.9,0.6,1.2c0.3,0.2,0.6,0.3,1,0.3c0.5-0.1,1-0.3,1.3-0.7c0.4-0.4,0.7-0.9,0.7-1.4L108.3,133.5
			z"/>
		<path class="st2" d="M124,139.2l-6.9,0.8l1.5-14.9l6.9-0.8L124,139.2z M125.9,119.8c0.1,0.5,0,0.9-0.2,1.4
			c-0.2,0.4-0.4,0.8-0.7,1.1c-0.3,0.3-0.7,0.6-1.1,0.7c-0.4,0.2-0.9,0.3-1.4,0.4c-0.8,0.1-1.6,0-2.3-0.4c-0.7-0.4-1.1-1.1-1.1-1.9
			c-0.1-0.5,0-0.9,0.2-1.4c0.2-0.4,0.4-0.8,0.7-1.1c0.3-0.3,0.7-0.6,1.2-0.7c0.5-0.2,0.9-0.3,1.4-0.4c0.8-0.1,1.6,0,2.3,0.4
			C125.5,118.3,126,119,125.9,119.8L125.9,119.8z"/>
		<path class="st2" d="M134,138.1l-6.9,0.8l2.3-23.2l6.9-0.8L134,138.1z"/>
		<path class="st2" d="M138.3,124.2c1.1-0.7,2.2-1.2,3.4-1.6c1.3-0.4,2.6-0.7,4-0.8c1.2-0.2,2.4-0.2,3.6-0.1
			c0.8,0.1,1.6,0.3,2.4,0.7c0.6,0.3,1,0.8,1.4,1.4c0.3,0.6,0.5,1.3,0.6,1.9c0.1,0.5,0.1,0.9,0.1,1.4c0,0.5,0,0.9,0,1.3l-0.8,7.6
			l-5.4,0.6l-0.9-2.1h-0.2c-0.6,0.9-1.4,1.6-2.3,2.1c-0.9,0.5-1.8,0.8-2.8,0.9c-0.5,0.1-1.1,0-1.6-0.1c-0.5-0.1-1-0.3-1.5-0.6
			c-0.5-0.3-0.8-0.7-1.1-1.1c-0.3-0.5-0.5-1.2-0.6-1.8c-0.2-1,0.1-2.1,0.7-2.9c0.6-0.8,1.4-1.4,2.4-1.8c1.1-0.5,2.3-0.8,3.5-1.1
			c1.3-0.2,2.6-0.4,4-0.6c0-0.2,0-0.6,0.1-1c0-0.4,0-0.7,0-1.1c0-0.4-0.2-0.8-0.4-1.1c-0.4-0.4-0.9-0.5-1.4-0.4
			c-0.7,0-1.3,0.4-1.7,0.9c-0.3,0.5-0.5,1.1-0.5,1.8l-4.9,0.6L138.3,124.2z M146.7,129.3l-0.6,0.1c-0.6,0.1-1.1,0.2-1.6,0.4
			c-0.4,0.2-0.7,0.5-1,0.8c-0.2,0.3-0.4,0.6-0.5,1c-0.1,0.3-0.1,0.7-0.1,1c0,0.5,0.2,0.9,0.6,1.2c0.3,0.2,0.6,0.3,1,0.3
			c0.5-0.1,1-0.3,1.4-0.7c0.4-0.4,0.7-0.9,0.7-1.4L146.7,129.3z"/>
		<path class="st2" d="M161.1,135.1l-5.5,0.6l2.3-23.2l6.9-0.8l-1.1,10.6h0.2c0.6-0.9,1.4-1.6,2.3-2.1c0.8-0.5,1.8-0.8,2.7-0.9
			c0.7-0.1,1.4,0,2,0.1c0.5,0.2,1,0.4,1.4,0.8c0.4,0.4,0.7,0.9,0.8,1.4c0.2,0.6,0.3,1.2,0.4,1.8c0,0.3,0.1,0.8,0.1,1.4
			c0,0.7,0,1.4-0.1,2.2c-0.1,0.8-0.2,1.7-0.4,2.5c-0.2,0.8-0.5,1.6-0.9,2.4c-0.4,0.7-1,1.4-1.6,1.9c-0.7,0.5-1.6,0.9-2.6,0.9
			c-1.2,0.1-2.3,0-3.4-0.4c-0.5-0.2-0.9-0.4-1.3-0.7c-0.3-0.2-0.6-0.5-0.9-0.9h-0.2L161.1,135.1z M164.6,131.6c0.6-0.1,1-0.5,1.3-1
			c0.3-0.7,0.5-1.4,0.7-2.1c0.1-0.8,0.2-1.6,0.2-2.4c0-0.6,0-1.2,0-1.8c0-0.4-0.2-0.8-0.4-1.1c-0.2-0.3-0.5-0.4-0.8-0.3
			c-0.5,0.1-0.9,0.3-1.2,0.6c-0.3,0.3-0.5,0.6-0.8,0.9l-0.6,6.2c0.2,0.3,0.4,0.5,0.7,0.7C163.9,131.6,164.3,131.7,164.6,131.6
			L164.6,131.6z"/>
		<path class="st2" d="M182.3,132.7l-6.9,0.8l2.3-23.2l6.9-0.8L182.3,132.7z"/>
		<path class="st2" d="M192.3,124.7c0,0.5,0,1,0,1.4c0,0.5,0,0.9,0.1,1.2c0,0.2,0.1,0.4,0.1,0.7c0,0.2,0.1,0.5,0.2,0.7
			c0.1,0.2,0.2,0.4,0.4,0.5c0.2,0.1,0.4,0.2,0.6,0.1c0.2,0,0.5-0.1,0.7-0.3c0.3-0.2,0.5-0.4,0.7-0.7c0.5-0.7,0.9-1.4,1.1-2.3
			l5.5-0.6l-0.5,3.7c-0.5,0.4-0.9,0.7-1.5,0.9c-0.6,0.3-1.2,0.5-1.8,0.7c-0.7,0.2-1.3,0.4-2,0.5c-0.7,0.1-1.3,0.2-1.9,0.3
			c-1.1,0.1-2.1,0.1-3.2,0.1c-0.9-0.1-1.8-0.3-2.6-0.8c-0.8-0.4-1.4-1-1.9-1.8c-0.6-0.9-0.9-1.9-1-3c-0.1-1.1-0.1-2.2,0.2-3.3
			c0.2-1.1,0.7-2.1,1.4-3c0.9-1,1.9-1.8,3.1-2.3c1.6-0.7,3.3-1.2,5.1-1.3c1.7-0.3,3.5-0.1,5.2,0.5c1.2,0.6,2,1.8,2.1,3.1
			c0.1,0.7,0,1.3-0.1,2c-0.1,0.7-0.3,1.3-0.6,1.9L192.3,124.7z M196.3,120.2c0-0.5-0.2-1-0.5-1.4c-0.2-0.2-0.5-0.3-0.9-0.3
			c-0.4,0-0.7,0.2-1,0.5c-0.3,0.3-0.5,0.6-0.7,1c-0.2,0.5-0.4,0.9-0.5,1.4c-0.2,0.5-0.3,1.1-0.3,1.7l3.9-0.4c0-0.3,0-0.6,0.1-0.9
			s0-0.5,0-0.8C196.3,120.7,196.3,120.5,196.3,120.2L196.3,120.2z"/>
	</g>
	<g>
		<path class="st2" d="M91.1,52.8l4.5-0.4l-0.6,7.4l-4.5,0.4l-0.6,7L81,68l0.6-7l-17.9,1.7l0.5-6.2l16.2-25.2l12.5-1.2L91.1,52.8z
			 M82.2,53.6l1.2-15.1l-9.9,15.9L82.2,53.6z"/>
	</g>
	<g>
		<path class="st2" d="M207.7,110.4l-0.3-3.4h3.3l-0.3,3.4l3.1-1.3l1,3.1l-3.3,0.8l2.2,2.5l-2.6,1.9l-1.8-2.9l-1.7,2.9l-2.6-1.9
			l2.2-2.5l-3.3-0.8l1-3.1L207.7,110.4z"/>
	</g>
</g>
</svg>
