<svg xmlns="http://www.w3.org/2000/svg" xmlns:xlink="http://www.w3.org/1999/xlink" width="1577.88" height="799.07" viewBox="0 0 1577.88 799.07"><defs><style>.cls-1{fill:url(#linear-gradient);}</style><linearGradient id="linear-gradient" x1="1635.91" y1="730.82" x2="-201.41" y2="30.17" gradientUnits="userSpaceOnUse"><stop offset="0" stop-color="#db0765"/><stop offset="0.31" stop-color="#e84f41"/><stop offset="0.64" stop-color="#f4941f"/><stop offset="0.87" stop-color="#fcbf09"/><stop offset="0.99" stop-color="#ffcf01"/><stop offset="1" stop-color="#fcb61c"/></linearGradient></defs><g id="Layer_2" data-name="Layer 2"><g id="Layer_1-2" data-name="Layer 1"><path class="cls-1" d="M101.84,379.42H58.93c-24.44,0-39.52-22.82-28.64-48.31,7.24-16.95,25-28.48,42.51-28.48H115c17.47,0,31.21,11.53,32.47,28.48C149.4,356.6,126.27,379.42,101.84,379.42Zm41,226.72H106.08c-17.47,0-35.27,11.52-42.5,28.47-10.88,25.49,4.19,48.32,28.63,48.32h37.43c24.43,0,47.56-22.83,45.67-48.32C174.05,617.66,160.31,606.14,142.84,606.14Zm1434.8-144.2-36.39,206.4c-1.51,8.59-9.7,15.55-18.29,15.55H1401.63c-11.22,63.61-71.88,115.18-135.5,115.18S1160,747.5,1171.26,683.89H556.31c-11.22,63.61-71.89,115.18-135.5,115.18S314.72,747.5,325.94,683.89H264.51c-22.1,0-36.46-18.9-30.51-41.41,5.22-19.72,25-34.52,44.75-34.52h43.59c24.43,0,47.56-22.82,45.67-48.31-1.26-16.95-15-28.48-32.47-28.48H140.63c-21.13,0-35.09-17.47-30.62-38.76,4.27-20.36,24.45-36.2,44.82-36.2h140c24.43,0,47.56-22.82,45.67-48.31-1.26-16.95-15-28.48-32.47-28.48H232.46c-21.12,0-35.09-17.47-30.62-38.76,4.27-20.36,24.45-36.2,44.82-36.2H375.85c24.44,0,47.57-22.82,45.68-48.31-1.26-16.95-15-28.48-32.47-28.48H31.46c-21.13,0-35.09-17.48-30.63-38.76,4.27-20.36,24.46-36.2,44.83-36.2H288.73c24.43,0,47.56-22.82,45.67-48.31-1.26-17-15-28.48-32.46-28.48H216.15c-18.75,0-33.61-15.34-32.19-34C185.68,19.16,206.85,0,229.11,0h897.26c56.82,0,94.75,46.06,84.74,102.87L1162.3,371.24a19.37,19.37,0,0,0,19.07,22.85h0l41.64-227c1.52-8.59,9.7-15.55,18.29-15.55H1445a12.61,12.61,0,0,1,12.08,7.72l119.84,294.84A14.12,14.12,0,0,1,1577.64,461.94Zm-97.3-77.61-62.64-166a5.25,5.25,0,0,0-5-3.2H1278.26c-6.41,0-7,2.9-7.63,6.48l-31.81,166.05a5.28,5.28,0,0,0,5.33,6.47H1473C1478.05,394.09,1482.12,388.65,1480.34,384.33Z"/></g></g></svg>