<svg xmlns="http://www.w3.org/2000/svg" width="362.35" height="197.61" viewBox="0 0 362.35 197.61"><defs><style>.cls-1{fill:#ee3424;}.cls-2{fill:#fdb913;}</style></defs><title>Asset 2</title><g id="Layer_2" data-name="Layer 2"><g id="Layer_1-2" data-name="Layer 1"><path class="cls-1" d="M362.29,17.34c.46,1.83-1.84.95-1.64,2.5H360a2.28,2.28,0,0,1-2.7-1.15c-.66-.68.39-1.64,0-2.13.78-.67,1.26-1.54,2.7-1.14,1.07.19,1.55,1.24,2.32,1.92"/><path class="cls-1" d="M354.39,20a4.85,4.85,0,0,1,1.82,4c-.94-.1-.86.78-1.33,1.24l.2,1.08c-1.65.56-3.58,1-4.93-.3-.46,0,0-1-.76-.66-.2-1.17-.68-3.57.47-4.25,1-.66,2.31-1.63,3.46-1.15h1.07"/><path class="cls-1" d="M300.22,29.38c.6.28,1-.31,1.45-.39.2.47.38,1.24,1.26,1l.49-.28v-.2h.28c-.28,1.08.56,1.25,1.05,1.64.67-.77,1.06.49,1.54.68-.1.66.58.66.88,1l.57-.5c-.09.4-.29,1.85.19,2.42l1.15.09c-1.63,1.73,1.94,1.91,1.35,3.37h-.37c-.11.49-.31,1.54.28,1.73h.28a.55.55,0,0,1-.56.78c-.4.47.28.66.37,1l1,.08v.87c-.5.09-1.34-.29-1.45.29.88,1.15-1.45,1.53-.47,2.88l.47.39c.11.78-1.33-.09-.87.86.11.59.67.78.4,1.56h-1c-.19-.59-.57.09-1,0-.67.66-.19,1.73.39,2.2l-1.06.1v-.1c-.3.2-1.35,0-1.24.78l.18.67c-.48.19-1.64-.38-1.35.59v.37c-.39.09-.76-.56-1,0v.19c-1.45-.75-.68,1.73-1.83.47-.67,0-.28,1-.67,1.18-.88-1.07-2,.08-3.26-.11-.4,1.45-1.56-.29-2.34.58-.08-.47-1.13-.47-1.24,0l-.58-.68c-.47,0-.87.29-.67.78.58.77-1.26,1.25-.3,2.21a1.93,1.93,0,0,0-1.61,1c-.61.58.09,1.35.37,1.94.47,0,.47.58.76.77a6.33,6.33,0,0,1,2.6,5.57c.51.2-.19,1.55.87,1.06-.2,1-1.33,1.07-1.33,2.23-.89-.3-1.25.27-1.36.86-1.63.37-1.45,3.17-3.65,2.12-.19-1.45-2.61,0-3-1.25-.46-.78-1.61-.58-2.5-.87,1.38-1.64-1.73-1.16-.66-2.6-1.55-.3-.1-1.63-.39-2.6,1-.68-.28-1.25.09-2.32l.5-.09a15,15,0,0,1-.78-4.62c-1.43.28-.49-1.74-1.73-1.82.11-1-.59-1.65-.38-2.12.68-.3.59-1.65,1.05-2.4l-1-.12c.29-1.43-1.84-.76-1.16-2.41-.88,0-1.54-1.61-2.32-.38a2.35,2.35,0,0,1-.48-1.54c.59,0,1.35.2,1.45-.38s-.4-.39-.58-.39c-.47-.19-.66-1.06-1.06-1.34-.09-2.22-2.22-3.85,0-5.6-.29-1.24,1.24-1,1.35-1.92.86-.66,2.1-.66,3.2-1,0,1.08.93,1.45,1.62,2.13.48-.1,1.15,0,1-.88l-.69-1.72h1.55l.1-2c.69-.29.95.55,1.16-.29l-.21-.86,1.75-.5c.19-.48-.68-.48-.39-1.15l1.25.5c0-1.16,1.73-.7,1.07-2.14,1,.1,1.62-1.15,2.49-.67,2,.77,1.64-1.44,2.71-1.63-.11,1.07,1.05,1,1.81,1,.59-1.27,2.31.56,1.74-1.64,1.46.08,1.08,1.64,2.4,1.74"/><path class="cls-1" d="M360.65,66.54c.28,1.24.56,3.39-.49,4.14-.37.68-1.07.77-1.73,1v-.4c-1.82-.18-3.08,1.36-4.15-.67-.48-1.06-1.23-2.8-.28-3.94a7.58,7.58,0,0,1,1.56-1.54l.08.2c1-.79,1.83-.49,3.17-.2a8.65,8.65,0,0,1,1.84,1.44"/><path class="cls-1" d="M337.08,85.42c.17.39.46,1,0,1.35.93.37,1.4,1.15,2.49,1.45.19.67,1.05.28.76,1.22.67.21,1.53,1,1,1.76h.38c.39.47-.1,1.72.67,1.81-1.15,1,.48,2.51-.58,3.58a12.57,12.57,0,0,1-2.79,3.46c-1.15-.1-.88,1.27-2.3.68l-.11.48c-.47,0-1.15-1.07-1.34,0-.88-1.07-3.47.29-4-1.16l-1.26.3c.19-.69-.37-1-.67-1.16-.66.28-.66-.58-1.36-.19-.28-.88-1.72-1.35-3.08-1.45l-1.34-.68c.2-1.16-.95-.67-1.17-1.44-.08-.29.22-.86-.28-.86h-.18c.68-1.06-1.35-2.13-.3-2.9-.38-1.16.88-2.4.76-3.27.79.1.3-.87.7-1.16.75.11,1-.47,1.63-.67-.3-1.36,1.91-.17,1.82-1.43.89-.3,1.35.77,1.93,0,.39.67.77-.11,1.17-.22.18.59.66.77,1.14,1.17l.58.48c.68-.66,1.64.28,2.13,0,.46.57.85-.17,1.34-.29,0-.68,0-1.14.47-1.54.86.59,1.16-.29,1.77.68"/><path class="cls-1" d="M327.81,102.47a4.6,4.6,0,0,1,1.16,3.84c-.2,1.64-1.63,2.41-2.81,3.27-1.34-.37-2.11.67-3.06-.28L321.26,108l.18-.39a1.06,1.06,0,0,1-.48-1.15h.11a4.58,4.58,0,0,1,.37-3c.8-.21.4-1.54,1.54-1.36l.12-.48c.47-.09,1.33.21,1.33-.48-.19-.49-.58-.88-.48-1.64,1.64.58,2.42,2.42,3.86,3"/><path class="cls-1" d="M331.18,111.13a5.27,5.27,0,0,1,3,1.53c.87-.1.67,1.07,1.25,1.37h.29c.27,1,.27,2.11.86,2.78,0,.29-.47.86,0,1.06a7.68,7.68,0,0,1-1.63,4.61c-.68-.08-.5.69-.86,1-.58-.1-.68.39-1,.69v.17a6.26,6.26,0,0,0-2.41.5c-.87.76-2.13-.6-2.71.47-.65.29-.09-.58-.55-.58-.69-.56-2.22-.49-2.33-1.64a10,10,0,0,0-1.34-1.25c-.49-1.16.18-3.37-.67-3.75,1.24-.49-.58-1.65.67-2.12-.11-.46.18-.46.38-.77-.38-.38.28-.38.09-1.14.67,0,.67-.79,1.05-1.19l.12.31.47-.39.95-.77.41-.48.37.2c.2-.58,1-.2,1.26-.68.78.78,1.62-.38,2.31.1"/><path class="cls-1" d="M6.39,124.41h.19c-1.16,1,.48,4-1.35,4.44,0,.48-.58.59-.86.77-.46.48-1.54.19-2.3.29-1.26-.1-1.16-1.55-2-2.14-.21-1,.29-1.72.48-2.58.74-.28,1.05-1.35,2.09-1.15.78-.5,2-.2,3.09-.3l.68.67"/><path class="cls-1" d="M3.79,131.25c.29.47.58,1.93-.19,2.12-.3.87-1.45.29-2.23.48a2.63,2.63,0,0,1-1.14-2.69,2.21,2.21,0,0,1,3.56.09"/><path class="cls-1" d="M288,165.32c-.67.78-1.15-.07-1.82.88a1.76,1.76,0,0,1-1.94-.88c-.39-.94.48-1.15.87-1.62,1.55-.29,2.31.86,2.89,1.62"/><path class="cls-1" d="M83.23,150.51c.1.48-.29,1.55.48,1.55.78-.4,2.32,1.83,3.09,0,.58,0,.3,1,1,1,.5-.1.69-.69,1.44-.49v1l-.18.1a1.46,1.46,0,0,0,1.16,1.17l1.23-.69.1,1.08h-.1c.1.19.1,1,.59,1h1c0,.49-.19,1.27.47,1.35h.4c.19.4-.59.78,0,1h.27c-.76,1.37,1.65.7.49,1.85,0,.67,1,.19,1.16.67-1.35.67.48,1.73-.3,2.4.19.58.3,1.25,1,1.25-1.24.59.48,1.93-.67,2.31l.17.5h.21c-.09.57-.68.76-.38,1.54,1.15.36,1.44-.31,2.12.57l.58-.29c0,1.06.94,1.46,1.54,1.93,1.53.27,1.24-1.54,2.4-1.64a2.1,2.1,0,0,1,1.65-1.45c.28-.57,1.15-.57,1.72-.87,1.25-.2,2.88.21,3.37-1,.49.57.87,1.43,1.83,1.43-.09.49,0,1.06.47,1.16,1.1.29,1.1,2,2.51,2v1.72c-1.41.29-.1,2.6-1.14,3.17.29.68-.59.09-.59.58-.3.47.11,1.45-.3,1.84-1.24-1-1.24,1.24-2.68.67-.18,1.55-1.45.09-2.31.38l-1.64-.19-.09-.19-.58.19-.38-.39-1,.39c-.47-.68-.77.38-1.16.3v-.11c-1,.48-2.51-.77-2.71,1-1.22-.49-1,1.14-2.2.76-.18.58-1.06.29-1.15.58-.68-.67-2-.2-2.21-1.34-.4,0-.87.29-.68.85-.1.49-1.26.39-1.16,1.25-.49,0-1.34-.19-1.34.5.19.56-.48.56-.68,1.06.2.67.68,1.06-.19,1.45-1.34.35-.39-1.37-1.34-1.65-.59,1.93-3,2-4.65,2.8-1.43.67-2-1.07-3.43-1.15-1-.88-1.93-1.84-1.67-3.58-.18-.29-.76-.68-.18-1,.87.09,1.35-.77,1.85-1.36-.1-.48,0-1.24-.79-1.06-.57.19-1,.68-1.73.49.59-.49-.2-1-.3-1.34H75.71l.21-1.07c-.87-.49-1,.48-1.54-.49l-.18-1.25-1,.49c-.18-.77.4-1.56-.48-2.22-1.83.48-1.24-1.55-2.3-2,.28-.48.47-2-.3-2.42-.78.29-.19-1.05-1.16-.57-.19-.68.79,0,.88-.57s.28-1.55-.09-1.93h-.31v-.58L70,165a1,1,0,0,0-1.25-.79h-.38c.58-.28.19-1.63,1.26-1.43.28-.57,1-1.25.37-1.82-.09-.87,1-.78.67-1.74l-.28-.86c.85.19,1.26-.5,1.44-1.15-.59-.5.58-.89.87-1.37.47-.09.47-.75.76-1.05l-.19-.59a2,2,0,0,0,2.12,0l.18-1.13.8.37c.76,0,.76-1.25,1.62-1.34,0-.48.3-.77.87-.69V152c.48.19,1.35.3,1.64-.08l.66-.7c-.09.48.29.59.6.7,1.44.27.08-1.83,1.52-1.37"/><path class="cls-1" d="M194.11,67.4c-32.51,22.31-44.9,59.16-11.87,64.31,16.31,2.53,26.42-42.17,39.69-39.33s5.69,23.74,21.83,23.74S283.77,94,276,72.46c-11.1-30.79-34.32-48.58-35.1-52.19s3-9.34,7.29-9.34S329.73,44.8,318,101.57c-15.2,73.05-101.71,39.23-101.71,39.23s-17,21.55-37,19.91c-21.18-1.74-44.11-26-35.39-54.4C158,59.8,198.32,64.5,194.11,67.4"/><path class="cls-1" d="M235.38,160.14c6.18-1.39,11.17,4.58,20.41,2.4,16.13-3.79,19.28-4,19.92.48s-14.23,27-31.48,30.66c-7.42,1.58-13.52-6.61-12.16-13.11,1.9-9-2.85-19,3.31-20.43"/><path class="cls-1" d="M220.68,16.39C216.11,15.85,111,19,104.93,116.81c-6.61,105.55,109.58,46.91,113.86,49.29s2.33,10.14-1,13.29c-22.3,21.35-163.8,44.8-150.34-61.86C82.13,1.45,200.74-10.64,226.68,6c3.41,2.2-1.43,10.9-6,10.36"/><path class="cls-2" d="M62.38,23.53c1.14-.41,3-.61,3.58.41.73.82-.5,1.92.3,2.74-.3.92-1.21,1-1.83,1.53-1.52.21-2.32-.81-3-1.64-.4-1.52.51-2.13.9-3"/><path class="cls-2" d="M76,39.81c1.62.31,1.22-1.64,2.15-2.13,2.43-1.43,4-1.72,6.81-.52,1.64,1.44,2.14,4.08,1.54,6.53L86,44l.21.61c-1.11.5-1.43,2-1.94,3,.2,1.72-1.53,2.33-2.65,2.86l-.4-.32c-.41.91-.71,0-1.32.42-1-.42-2.66-.63-3.06-1.94-1.12-.1-.82-1.33-1.23-1.94l.2-.21-.2-.61c.61-.19-.11-.62,0-.91a2,2,0,0,0,1-2.25h.11c-.53-.3.49-.81-.11-1.21-.83-.1-1.63-.1-1.23-1.24l.61-.5"/><path class="cls-2" d="M90.72,45.52c1.09.61,2.12,1.31,2,3.16h.09a4.11,4.11,0,0,1-1.73,2.24c-1.43.09-2.74,0-3.46-.82l-.31-.61h-.2l-.1-.91c-.81-.22-.5.8-1.43.39,1.53-1.31,2.24-3.75,5.11-3.45"/><path class="cls-2" d="M92.33,20.27c.71.7,2.86-.41,3,1,.92.21.29,1.73.49,2.56-.69.38-1,1.31-2.33,1-.82-.1-1.12-.83-1.72-1.23.2-1.13-.51-2.95.6-3.36"/><path class="cls-2" d="M93.76,44.61c.39-1.52.72-3.46,2.54-3.77.72-.92,2.45-.3,3.66-.53,1.54.84,3.06,1.85,3.37,3.79.1.6-.21,1.52.31,1.82-1,1.34-1.53,3.26-3.57,3.37-1.22,0-2.64.3-4-.52a7.81,7.81,0,0,1-2.34-3.15v-1"/><path class="cls-2" d="M97.74,22c.5.41,1.32.71,1,1.85a1.23,1.23,0,0,1-1.62.69c-.74.22-.62-.6-1-.91A1.76,1.76,0,0,1,97.74,22"/><polyline class="cls-1" points="349.88 133.99 349.5 133.6 349.88 133.6 349.88 133.99"/></g></g></svg>